<svg width="72" height="11" viewBox="0 0 72 11" fill="none" xmlns="http://www.w3.org/2000/svg">
<path d="M5.58203 7.16992H7.33398C7.29883 7.74414 7.14062 8.25391 6.85938 8.69922C6.58203 9.14453 6.19336 9.49219 5.69336 9.74219C5.19727 9.99219 4.59961 10.1172 3.90039 10.1172C3.35352 10.1172 2.86328 10.0234 2.42969 9.83594C1.99609 9.64453 1.625 9.37109 1.31641 9.01562C1.01172 8.66016 0.779297 8.23047 0.619141 7.72656C0.458984 7.22266 0.378906 6.6582 0.378906 6.0332V5.44141C0.378906 4.81641 0.460938 4.25195 0.625 3.74805C0.792969 3.24023 1.03125 2.80859 1.33984 2.45312C1.65234 2.09766 2.02539 1.82422 2.45898 1.63281C2.89258 1.44141 3.37695 1.3457 3.91211 1.3457C4.62305 1.3457 5.22266 1.47461 5.71094 1.73242C6.20312 1.99023 6.58398 2.3457 6.85352 2.79883C7.12695 3.25195 7.29102 3.76758 7.3457 4.3457H5.58789C5.56836 4.00195 5.5 3.71094 5.38281 3.47266C5.26562 3.23047 5.08789 3.04883 4.84961 2.92773C4.61523 2.80273 4.30273 2.74023 3.91211 2.74023C3.61914 2.74023 3.36328 2.79492 3.14453 2.9043C2.92578 3.01367 2.74219 3.17969 2.59375 3.40234C2.44531 3.625 2.33398 3.90625 2.25977 4.24609C2.18945 4.58203 2.1543 4.97656 2.1543 5.42969V6.0332C2.1543 6.47461 2.1875 6.86328 2.25391 7.19922C2.32031 7.53125 2.42188 7.8125 2.55859 8.04297C2.69922 8.26953 2.87891 8.44141 3.09766 8.55859C3.32031 8.67188 3.58789 8.72852 3.90039 8.72852C4.26758 8.72852 4.57031 8.66992 4.80859 8.55273C5.04688 8.43555 5.22852 8.26172 5.35352 8.03125C5.48242 7.80078 5.55859 7.51367 5.58203 7.16992ZM11.957 2.92773L9.63672 10H7.76758L10.9375 1.46875H12.127L11.957 2.92773ZM13.8848 10L11.5586 2.92773L11.3711 1.46875H12.5723L15.7598 10H13.8848ZM13.7793 6.82422V8.20117H9.27344V6.82422H13.7793ZM17.3535 1.46875H18.8418L21.0332 7.73242L23.2246 1.46875H24.7129L21.6309 10H20.4355L17.3535 1.46875ZM16.5508 1.46875H18.0332L18.3027 7.57422V10H16.5508V1.46875ZM24.0332 1.46875H25.5215V10H23.7637V7.57422L24.0332 1.46875ZM31.5039 7.76758C31.5039 7.61523 31.4805 7.47852 31.4336 7.35742C31.3906 7.23242 31.3086 7.11914 31.1875 7.01758C31.0664 6.91211 30.8965 6.80859 30.6777 6.70703C30.459 6.60547 30.1758 6.5 29.8281 6.39062C29.4414 6.26562 29.0742 6.125 28.7266 5.96875C28.3828 5.8125 28.0781 5.63086 27.8125 5.42383C27.5508 5.21289 27.3438 4.96875 27.1914 4.69141C27.043 4.41406 26.9688 4.0918 26.9688 3.72461C26.9688 3.36914 27.0469 3.04687 27.2031 2.75781C27.3594 2.46484 27.5781 2.21484 27.8594 2.00781C28.1406 1.79688 28.4727 1.63477 28.8555 1.52148C29.2422 1.4082 29.666 1.35156 30.127 1.35156C30.7559 1.35156 31.3047 1.46484 31.7734 1.69141C32.2422 1.91797 32.6055 2.22852 32.8633 2.62305C33.125 3.01758 33.2559 3.46875 33.2559 3.97656H31.5098C31.5098 3.72656 31.457 3.50781 31.3516 3.32031C31.25 3.12891 31.0938 2.97852 30.8828 2.86914C30.6758 2.75977 30.4141 2.70508 30.0977 2.70508C29.793 2.70508 29.5391 2.75195 29.3359 2.8457C29.1328 2.93555 28.9805 3.05859 28.8789 3.21484C28.7773 3.36719 28.7266 3.53906 28.7266 3.73047C28.7266 3.875 28.7617 4.00586 28.832 4.12305C28.9062 4.24023 29.0156 4.34961 29.1602 4.45117C29.3047 4.55273 29.4824 4.64844 29.6934 4.73828C29.9043 4.82812 30.1484 4.91602 30.4258 5.00195C30.8906 5.14258 31.2988 5.30078 31.6504 5.47656C32.0059 5.65234 32.3027 5.84961 32.541 6.06836C32.7793 6.28711 32.959 6.53516 33.0801 6.8125C33.2012 7.08984 33.2617 7.4043 33.2617 7.75586C33.2617 8.12695 33.1895 8.45898 33.0449 8.75195C32.9004 9.04492 32.6914 9.29297 32.418 9.49609C32.1445 9.69922 31.8184 9.85352 31.4395 9.95898C31.0605 10.0645 30.6367 10.1172 30.168 10.1172C29.7461 10.1172 29.3301 10.0625 28.9199 9.95312C28.5098 9.83984 28.1367 9.66992 27.8008 9.44336C27.4688 9.2168 27.2031 8.92773 27.0039 8.57617C26.8047 8.22461 26.7051 7.80859 26.7051 7.32812H28.4688C28.4688 7.59375 28.5098 7.81836 28.5918 8.00195C28.6738 8.18555 28.7891 8.33398 28.9375 8.44727C29.0898 8.56055 29.2695 8.64258 29.4766 8.69336C29.6875 8.74414 29.918 8.76953 30.168 8.76953C30.4727 8.76953 30.7227 8.72656 30.918 8.64062C31.1172 8.55469 31.2637 8.43555 31.3574 8.2832C31.4551 8.13086 31.5039 7.95898 31.5039 7.76758Z" fill="#00418C"/>
<path d="M36.502 10H34.8027V3.09766C34.8027 2.61719 34.8965 2.21289 35.084 1.88477C35.2754 1.55273 35.543 1.30273 35.8867 1.13477C36.2344 0.962891 36.6465 0.876953 37.123 0.876953C37.2793 0.876953 37.4297 0.888672 37.5742 0.912109C37.7188 0.931641 37.8594 0.957031 37.9961 0.988281L37.9785 2.25977C37.9043 2.24023 37.8262 2.22656 37.7441 2.21875C37.6621 2.21094 37.5664 2.20703 37.457 2.20703C37.2539 2.20703 37.0801 2.24219 36.9355 2.3125C36.7949 2.37891 36.6875 2.47852 36.6133 2.61133C36.5391 2.74414 36.502 2.90625 36.502 3.09766V10ZM37.7676 3.66016V4.85547H33.8594V3.66016H37.7676ZM40.4336 3.66016V10H38.7402V3.66016H40.4336ZM38.6348 2.00781C38.6348 1.76172 38.7207 1.55859 38.8926 1.39844C39.0645 1.23828 39.2949 1.1582 39.584 1.1582C39.8691 1.1582 40.0977 1.23828 40.2695 1.39844C40.4453 1.55859 40.5332 1.76172 40.5332 2.00781C40.5332 2.25391 40.4453 2.45703 40.2695 2.61719C40.0977 2.77734 39.8691 2.85742 39.584 2.85742C39.2949 2.85742 39.0645 2.77734 38.8926 2.61719C38.7207 2.45703 38.6348 2.25391 38.6348 2.00781ZM43.4805 5.01367V10H41.793V3.66016H43.375L43.4805 5.01367ZM43.2344 6.60742H42.7773C42.7773 6.13867 42.8379 5.7168 42.959 5.3418C43.0801 4.96289 43.25 4.64062 43.4688 4.375C43.6875 4.10547 43.9473 3.90039 44.248 3.75977C44.5527 3.61523 44.8926 3.54297 45.2676 3.54297C45.5645 3.54297 45.8359 3.58594 46.082 3.67188C46.3281 3.75781 46.5391 3.89453 46.7148 4.08203C46.8945 4.26953 47.0312 4.51758 47.125 4.82617C47.2227 5.13477 47.2715 5.51172 47.2715 5.95703V10H45.5723V5.95117C45.5723 5.66992 45.5332 5.45117 45.4551 5.29492C45.377 5.13867 45.2617 5.0293 45.1094 4.9668C44.9609 4.90039 44.7773 4.86719 44.5586 4.86719C44.332 4.86719 44.1348 4.91211 43.9668 5.00195C43.8027 5.0918 43.666 5.2168 43.5566 5.37695C43.4512 5.5332 43.3711 5.7168 43.3164 5.92773C43.2617 6.13867 43.2344 6.36523 43.2344 6.60742ZM51.9824 8.24805C51.9824 8.12695 51.9473 8.01758 51.877 7.91992C51.8066 7.82227 51.6758 7.73242 51.4844 7.65039C51.2969 7.56445 51.0254 7.48633 50.6699 7.41602C50.3496 7.3457 50.0508 7.25781 49.7734 7.15234C49.5 7.04297 49.2617 6.91211 49.0586 6.75977C48.8594 6.60742 48.7031 6.42773 48.5898 6.2207C48.4766 6.00977 48.4199 5.76953 48.4199 5.5C48.4199 5.23438 48.4766 4.98438 48.5898 4.75C48.707 4.51562 48.873 4.30859 49.0879 4.12891C49.3066 3.94531 49.5723 3.80273 49.8848 3.70117C50.2012 3.5957 50.5566 3.54297 50.9512 3.54297C51.502 3.54297 51.9746 3.63086 52.3691 3.80664C52.7676 3.98242 53.0723 4.22461 53.2832 4.5332C53.498 4.83789 53.6055 5.18555 53.6055 5.57617H51.918C51.918 5.41211 51.8828 5.26562 51.8125 5.13672C51.7461 5.00391 51.6406 4.90039 51.4961 4.82617C51.3555 4.74805 51.1719 4.70898 50.9453 4.70898C50.7578 4.70898 50.5957 4.74219 50.459 4.80859C50.3223 4.87109 50.2168 4.95703 50.1426 5.06641C50.0723 5.17188 50.0371 5.28906 50.0371 5.41797C50.0371 5.51562 50.0566 5.60352 50.0957 5.68164C50.1387 5.75586 50.207 5.82422 50.3008 5.88672C50.3945 5.94922 50.5156 6.00781 50.6641 6.0625C50.8164 6.11328 51.0039 6.16016 51.2266 6.20312C51.6836 6.29688 52.0918 6.41992 52.4512 6.57227C52.8105 6.7207 53.0957 6.92383 53.3066 7.18164C53.5176 7.43555 53.623 7.76953 53.623 8.18359C53.623 8.46484 53.5605 8.72266 53.4355 8.95703C53.3105 9.19141 53.1309 9.39648 52.8965 9.57227C52.6621 9.74414 52.3809 9.87891 52.0527 9.97656C51.7285 10.0703 51.3633 10.1172 50.957 10.1172C50.3672 10.1172 49.8672 10.0117 49.457 9.80078C49.0508 9.58984 48.7422 9.32227 48.5312 8.99805C48.3242 8.66992 48.2207 8.33398 48.2207 7.99023H49.8203C49.8281 8.2207 49.8867 8.40625 49.9961 8.54688C50.1094 8.6875 50.252 8.78906 50.4238 8.85156C50.5996 8.91406 50.7891 8.94531 50.9922 8.94531C51.2109 8.94531 51.3926 8.91602 51.5371 8.85742C51.6816 8.79492 51.791 8.71289 51.8652 8.61133C51.9434 8.50586 51.9824 8.38477 51.9824 8.24805ZM57.6367 10.1172C57.1445 10.1172 56.7031 10.0391 56.3125 9.88281C55.9219 9.72266 55.5898 9.50195 55.3164 9.2207C55.0469 8.93945 54.8398 8.61328 54.6953 8.24219C54.5508 7.86719 54.4785 7.46875 54.4785 7.04688V6.8125C54.4785 6.33203 54.5469 5.89258 54.6836 5.49414C54.8203 5.0957 55.0156 4.75 55.2695 4.45703C55.5273 4.16406 55.8398 3.93945 56.207 3.7832C56.5742 3.62305 56.9883 3.54297 57.4492 3.54297C57.8984 3.54297 58.2969 3.61719 58.6445 3.76562C58.9922 3.91406 59.2832 4.125 59.5176 4.39844C59.7559 4.67188 59.9355 5 60.0566 5.38281C60.1777 5.76172 60.2383 6.18359 60.2383 6.64844V7.35156H55.1992V6.22656H58.5801V6.09766C58.5801 5.86328 58.5371 5.6543 58.4512 5.4707C58.3691 5.2832 58.2441 5.13477 58.0762 5.02539C57.9082 4.91602 57.6934 4.86133 57.4316 4.86133C57.209 4.86133 57.0176 4.91016 56.8574 5.00781C56.6973 5.10547 56.5664 5.24219 56.4648 5.41797C56.3672 5.59375 56.293 5.80078 56.2422 6.03906C56.1953 6.27344 56.1719 6.53125 56.1719 6.8125V7.04688C56.1719 7.30078 56.207 7.53516 56.2773 7.75C56.3516 7.96484 56.4551 8.15039 56.5879 8.30664C56.7246 8.46289 56.8887 8.58398 57.0801 8.66992C57.2754 8.75586 57.4961 8.79883 57.7422 8.79883C58.0469 8.79883 58.3301 8.74023 58.5918 8.62305C58.8574 8.50195 59.0859 8.32031 59.2773 8.07812L60.0977 8.96875C59.9648 9.16016 59.7832 9.34375 59.5527 9.51953C59.3262 9.69531 59.0527 9.83984 58.7324 9.95312C58.4121 10.0625 58.0469 10.1172 57.6367 10.1172ZM62.8867 5.04297V10H61.1992V3.66016H62.7871L62.8867 5.04297ZM64.7969 3.61914L64.7676 5.18359C64.6855 5.17188 64.5859 5.16211 64.4688 5.1543C64.3555 5.14258 64.252 5.13672 64.1582 5.13672C63.9199 5.13672 63.7129 5.16797 63.5371 5.23047C63.3652 5.28906 63.2207 5.37695 63.1035 5.49414C62.9902 5.61133 62.9043 5.75391 62.8457 5.92188C62.791 6.08984 62.7598 6.28125 62.752 6.49609L62.4121 6.39062C62.4121 5.98047 62.4531 5.60352 62.5352 5.25977C62.6172 4.91211 62.7363 4.60938 62.8926 4.35156C63.0527 4.09375 63.248 3.89453 63.4785 3.75391C63.709 3.61328 63.9727 3.54297 64.2695 3.54297C64.3633 3.54297 64.459 3.55078 64.5566 3.56641C64.6543 3.57812 64.7344 3.5957 64.7969 3.61914ZM67.8555 8.76953L69.2617 3.66016H71.0254L68.8867 10H67.8203L67.8555 8.76953ZM66.8887 3.66016L68.3008 8.77539L68.3301 10H67.2578L65.1191 3.66016H66.8887Z" fill="#00A859"/>
</svg>
