<svg width="24" height="24" viewBox="0 0 24 24" fill="none" xmlns="http://www.w3.org/2000/svg">
<path d="M5.79382 5.78705L0.427129 11.1811C0.427129 11.1811 0.00714275 11.5496 9.15057e-05 11.8634C-0.00680758 12.1704 0.378708 12.5537 0.378708 12.5537L6.13277 18.2768L11.682 24V21.4956V18.9832L10.1114 17.2494C8.86051 16.0052 8.37629 15.4755 8.37629 15.339C8.37629 15.2026 8.85243 14.6808 10.0549 13.4688C10.9749 12.5457 11.682 11.751 11.682 11.751V9.656V8.63658V7.61717L9.12682 10.3864C6.68962 12.8427 6.3426 13.1637 6.1247 13.1637C5.97944 13.1637 5.80189 13.0915 5.71312 13.0032C5.33382 12.6259 5.34189 12.6179 8.6991 9.27071L11.682 6.1322V3.26661V0.401024V0C11.4651 0.145315 11.3553 0.229134 11.1605 0.401024L5.79382 5.78705Z" fill="#159640"/>
<path d="M12.3179 6.03355C12.3179 11.2263 12.3179 11.8594 12.3179 11.8594C12.3986 11.9716 13.3272 12.789 14.2153 13.6865C15.1035 14.584 15.8867 15.4094 15.9513 15.5296C16.0321 15.6739 16.0724 15.9784 16.0724 16.4672C16.0724 17.3327 15.9513 17.6372 15.3458 18.2382C14.7886 18.7912 14.2315 18.9995 13.1495 19.0556L12.3179 19.0957V21.5478V24L16.5165 19.7929C20.1419 16.1627 20.7152 15.5537 20.7152 15.3453C20.7152 15.145 20.3115 14.7123 17.6873 12.0998C14.4495 8.87837 14.4495 8.87837 14.8451 8.50975C15.2327 8.14913 15.2327 8.14112 18.4544 11.3385C21.0786 13.9349 21.5226 14.3436 21.7245 14.3436C21.9264 14.3436 22.1282 14.1753 22.9437 13.358C24.0095 12.2922 24.0984 12.1159 23.9369 11.5068C23.8642 11.2183 23.1779 10.5131 18.4302 5.78513L13.0042 0.4C12.7515 0.21459 12.5982 0.131666 12.3179 0V0.4V6.03355Z" fill="#154096"/>
</svg>
