<svg width="16" height="16" viewBox="0 0 16 16" fill="none" xmlns="http://www.w3.org/2000/svg">
<g id="Checkbox" clip-path="url(#clip0_131_6454)">
<path id="Union" fill-rule="evenodd" clip-rule="evenodd" d="M8.00003 0.3333L7.83379 0.333275C6.44364 0.332967 5.54543 0.332768 4.78045 0.537745C2.70989 1.09255 1.09261 2.70983 0.537806 4.78038C0.332829 5.54537 0.333028 6.44357 0.333336 7.83373L0.333361 7.99997L0.333336 8.1662C0.333028 9.55636 0.332829 10.4546 0.537806 11.2195C1.09261 13.2901 2.70989 14.9074 4.78045 15.4622C5.54543 15.6672 6.44364 15.667 7.8338 15.6667L8.00003 15.6666H10.6667C13.4281 15.6666 15.6667 13.4281 15.6667 10.6666V9.99997C15.6667 9.44768 15.219 8.99997 14.6667 8.99997C14.1144 8.99997 13.6667 9.44768 13.6667 9.99997V10.6666C13.6667 12.3235 12.3235 13.6666 10.6667 13.6666H8.00003C6.38569 13.6666 5.77469 13.658 5.29808 13.5303C3.91772 13.1605 2.83953 12.0823 2.46966 10.7019C2.34195 10.2253 2.33336 9.6143 2.33336 7.99997C2.33336 6.38563 2.34195 5.77463 2.46966 5.29802C2.83953 3.91765 3.91772 2.83947 5.29808 2.4696C5.77469 2.34189 6.38569 2.3333 8.00003 2.3333H10C10.5523 2.3333 11 1.88558 11 1.3333C11 0.781015 10.5523 0.3333 10 0.3333H8.00003ZM14.7071 4.70707C15.0977 4.31655 15.0977 3.68338 14.7071 3.29286C14.3166 2.90234 13.6834 2.90234 13.2929 3.29286L7.95446 8.63132L5.99187 6.91406C5.57623 6.55037 4.94447 6.59249 4.58078 7.00813C4.2171 7.42377 4.25922 8.05553 4.67486 8.41921L7.34152 10.7525C7.73773 11.0992 8.33487 11.0793 8.70713 10.7071L14.7071 4.70707Z" fill="#1684FB"/>
</g>
<defs>
<clipPath id="clip0_131_6454">
<rect width="16" height="16" fill="white"/>
</clipPath>
</defs>
</svg>
