<svg width="20" height="20" viewBox="0 0 20 20" fill="none" xmlns="http://www.w3.org/2000/svg">
<circle cx="10" cy="10" r="10" fill="#FFFFFF"/>
<g clip-path="url(#clip0_224_930)">
<path d="M10.8812 10.0001L13.5687 7.31887C13.6864 7.20118 13.7525 7.04155 13.7525 6.87512C13.7525 6.70868 13.6864 6.54906 13.5687 6.43137C13.4511 6.31368 13.2914 6.24756 13.125 6.24756C12.9586 6.24756 12.7989 6.31368 12.6812 6.43137L9.99999 9.11887L7.31874 6.43137C7.20105 6.31368 7.04143 6.24756 6.87499 6.24756C6.70855 6.24756 6.54893 6.31368 6.43124 6.43137C6.31355 6.54906 6.24744 6.70868 6.24744 6.87512C6.24744 7.04155 6.31355 7.20118 6.43124 7.31887L9.11874 10.0001L6.43124 12.6814C6.37266 12.7395 6.32617 12.8086 6.29444 12.8848C6.2627 12.9609 6.24637 13.0426 6.24637 13.1251C6.24637 13.2076 6.2627 13.2893 6.29444 13.3655C6.32617 13.4416 6.37266 13.5108 6.43124 13.5689C6.48934 13.6274 6.55847 13.6739 6.63463 13.7057C6.71079 13.7374 6.79248 13.7537 6.87499 13.7537C6.9575 13.7537 7.03919 13.7374 7.11535 13.7057C7.19151 13.6739 7.26064 13.6274 7.31874 13.5689L9.99999 10.8814L12.6812 13.5689C12.7393 13.6274 12.8085 13.6739 12.8846 13.7057C12.9608 13.7374 13.0425 13.7537 13.125 13.7537C13.2075 13.7537 13.2892 13.7374 13.3654 13.7057C13.4415 13.6739 13.5106 13.6274 13.5687 13.5689C13.6273 13.5108 13.6738 13.4416 13.7056 13.3655C13.7373 13.2893 13.7536 13.2076 13.7536 13.1251C13.7536 13.0426 13.7373 12.9609 13.7056 12.8848C13.6738 12.8086 13.6273 12.7395 13.5687 12.6814L10.8812 10.0001Z" fill="#BDBDBD"/>
</g>
<defs>
<clipPath id="clip0_224_930">
<rect width="15" height="15" fill="white" transform="translate(2.5 2.5)"/>
</clipPath>
</defs>
</svg>
