<svg width="60" height="60" viewBox="0 0 60 60" fill="none" xmlns="http://www.w3.org/2000/svg">
<g id="Business / bar graph">
<path id="Vector" d="M12.5 30C11.837 30 11.2011 30.2634 10.7322 30.7322C10.2634 31.2011 10 31.837 10 32.5V52.5C10 53.163 10.2634 53.7989 10.7322 54.2678C11.2011 54.7366 11.837 55 12.5 55C13.163 55 13.7989 54.7366 14.2678 54.2678C14.7366 53.7989 15 53.163 15 52.5V32.5C15 31.837 14.7366 31.2011 14.2678 30.7322C13.7989 30.2634 13.163 30 12.5 30ZM25 5C24.337 5 23.7011 5.26339 23.2322 5.73223C22.7634 6.20107 22.5 6.83696 22.5 7.5V52.5C22.5 53.163 22.7634 53.7989 23.2322 54.2678C23.7011 54.7366 24.337 55 25 55C25.663 55 26.2989 54.7366 26.7678 54.2678C27.2366 53.7989 27.5 53.163 27.5 52.5V7.5C27.5 6.83696 27.2366 6.20107 26.7678 5.73223C26.2989 5.26339 25.663 5 25 5ZM50 40C49.337 40 48.7011 40.2634 48.2322 40.7322C47.7634 41.2011 47.5 41.837 47.5 42.5V52.5C47.5 53.163 47.7634 53.7989 48.2322 54.2678C48.7011 54.7366 49.337 55 50 55C50.663 55 51.2989 54.7366 51.7678 54.2678C52.2366 53.7989 52.5 53.163 52.5 52.5V42.5C52.5 41.837 52.2366 41.2011 51.7678 40.7322C51.2989 40.2634 50.663 40 50 40ZM37.5 20C36.837 20 36.2011 20.2634 35.7322 20.7322C35.2634 21.2011 35 21.837 35 22.5V52.5C35 53.163 35.2634 53.7989 35.7322 54.2678C36.2011 54.7366 36.837 55 37.5 55C38.163 55 38.7989 54.7366 39.2678 54.2678C39.7366 53.7989 40 53.163 40 52.5V22.5C40 21.837 39.7366 21.2011 39.2678 20.7322C38.7989 20.2634 38.163 20 37.5 20Z" fill="#2B2B2B"/>
</g>
</svg>
