<svg width="60" height="60" viewBox="0 0 60 60" fill="none" xmlns="http://www.w3.org/2000/svg">
<g id="Business / bill">
<path id="Vector" d="M32.4998 40H17.4998C16.8368 40 16.2009 40.2634 15.7321 40.7323C15.2632 41.2011 14.9998 41.837 14.9998 42.5C14.9998 43.1631 15.2632 43.799 15.7321 44.2678C16.2009 44.7367 16.8368 45 17.4998 45H32.4998C33.1629 45 33.7988 44.7367 34.2676 44.2678C34.7364 43.799 34.9998 43.1631 34.9998 42.5C34.9998 41.837 34.7364 41.2011 34.2676 40.7323C33.7988 40.2634 33.1629 40 32.4998 40ZM22.4998 25H27.4998C28.1629 25 28.7988 24.7367 29.2676 24.2678C29.7364 23.799 29.9998 23.1631 29.9998 22.5C29.9998 21.837 29.7364 21.2011 29.2676 20.7323C28.7988 20.2634 28.1629 20 27.4998 20H22.4998C21.8368 20 21.2009 20.2634 20.7321 20.7323C20.2632 21.2011 19.9998 21.837 19.9998 22.5C19.9998 23.1631 20.2632 23.799 20.7321 24.2678C21.2009 24.7367 21.8368 25 22.4998 25ZM52.4998 30H44.9998V7.50005C45.0016 7.05952 44.8869 6.62636 44.6674 6.24441C44.4479 5.86247 44.1313 5.54531 43.7498 5.32505C43.3698 5.10563 42.9387 4.99011 42.4998 4.99011C42.061 4.99011 41.6299 5.10563 41.2498 5.32505L33.7498 9.62505L26.2498 5.32505C25.8698 5.10563 25.4387 4.99011 24.9998 4.99011C24.561 4.99011 24.1299 5.10563 23.7498 5.32505L16.2498 9.62505L8.74984 5.32505C8.36979 5.10563 7.93868 4.99011 7.49984 4.99011C7.06099 4.99011 6.62988 5.10563 6.24984 5.32505C5.86833 5.54531 5.55179 5.86247 5.33228 6.24441C5.11277 6.62636 4.99809 7.05952 4.99984 7.50005V47.5C4.99984 49.4892 5.79001 51.3968 7.19654 52.8034C8.60306 54.2099 10.5107 55 12.4998 55H47.4998C49.489 55 51.3966 54.2099 52.8031 52.8034C54.2097 51.3968 54.9998 49.4892 54.9998 47.5V32.5C54.9998 31.837 54.7364 31.2011 54.2676 30.7323C53.7988 30.2634 53.1629 30 52.4998 30ZM12.4998 50C11.8368 50 11.2009 49.7367 10.7321 49.2678C10.2632 48.799 9.99984 48.1631 9.99984 47.5V11.825L14.9998 14.675C15.3857 14.8766 15.8145 14.9818 16.2498 14.9818C16.6851 14.9818 17.114 14.8766 17.4998 14.675L24.9998 10.375L32.4998 14.675C32.8857 14.8766 33.3145 14.9818 33.7498 14.9818C34.1851 14.9818 34.614 14.8766 34.9998 14.675L39.9998 11.825V47.5C40.0066 48.3529 40.1588 49.1984 40.4498 50H12.4998ZM49.9998 47.5C49.9998 48.1631 49.7364 48.799 49.2676 49.2678C48.7988 49.7367 48.1629 50 47.4998 50C46.8368 50 46.2009 49.7367 45.7321 49.2678C45.2632 48.799 44.9998 48.1631 44.9998 47.5V35H49.9998V47.5ZM32.4998 30H17.4998C16.8368 30 16.2009 30.2634 15.7321 30.7323C15.2632 31.2011 14.9998 31.837 14.9998 32.5C14.9998 33.1631 15.2632 33.799 15.7321 34.2678C16.2009 34.7367 16.8368 35 17.4998 35H32.4998C33.1629 35 33.7988 34.7367 34.2676 34.2678C34.7364 33.799 34.9998 33.1631 34.9998 32.5C34.9998 31.837 34.7364 31.2011 34.2676 30.7323C33.7988 30.2634 33.1629 30 32.4998 30Z" fill="#2B2B2B"/>
</g>
</svg>
