<svg width="60" height="60" viewBox="0 0 60 60" fill="none" xmlns="http://www.w3.org/2000/svg">
<g id="Security / shield">
<path id="Vector" d="M49.075 9.1251C48.7846 8.89015 48.4452 8.72328 48.0818 8.63676C47.7183 8.55023 47.3402 8.54625 46.975 8.6251C44.3036 9.18496 41.5459 9.19209 38.8716 8.64606C36.1973 8.10003 33.6631 7.01239 31.425 5.4501C31.0065 5.15978 30.5093 5.00421 30 5.00421C29.4907 5.00421 28.9935 5.15978 28.575 5.4501C26.3369 7.01239 23.8027 8.10003 21.1284 8.64606C18.4542 9.19209 15.6964 9.18496 13.025 8.6251C12.6599 8.54625 12.2817 8.55023 11.9183 8.63676C11.5549 8.72328 11.2155 8.89015 10.925 9.1251C10.635 9.3604 10.4013 9.65769 10.2412 9.99514C10.0812 10.3326 9.99874 10.7016 10 11.0751V29.7001C9.99779 33.2845 10.8519 36.8175 12.4914 40.005C14.1308 43.1925 16.508 45.9422 19.425 48.0251L28.55 54.5251C28.9734 54.8266 29.4803 54.9886 30 54.9886C30.5198 54.9886 31.0266 54.8266 31.45 54.5251L40.575 48.0251C43.4921 45.9422 45.8693 43.1925 47.5087 40.005C49.1481 36.8175 50.0022 33.2845 50 29.7001V11.0751C50.0013 10.7016 49.9189 10.3326 49.7588 9.99514C49.5987 9.65769 49.3651 9.3604 49.075 9.1251ZM45 29.7001C45.0019 32.487 44.3382 35.234 43.0641 37.7126C41.7901 40.1912 39.9424 42.3297 37.675 43.9501L30 49.4251L22.325 43.9501C20.0576 42.3297 18.21 40.1912 16.9359 37.7126C15.6618 35.234 14.9981 32.487 15 29.7001V13.9501C20.2411 14.3987 25.4901 13.1827 30 10.4751C34.5099 13.1827 39.7589 14.3987 45 13.9501V29.7001Z" fill="#2B2B2B"/>
</g>
</svg>
