<svg width="16" height="16" viewBox="0 0 16 16" fill="none" xmlns="http://www.w3.org/2000/svg">
<g id="Checkbox" clip-path="url(#clip0_4419_4734)">
<path id="Union" fill-rule="evenodd" clip-rule="evenodd" d="M8 0.3333L7.83376 0.333275C6.4436 0.332967 5.5454 0.332768 4.78041 0.537745C2.70986 1.09255 1.09258 2.70983 0.537776 4.78038C0.332798 5.54537 0.332998 6.44357 0.333306 7.83373L0.33333 7.99997L0.333306 8.1662C0.332998 9.55636 0.332798 10.4546 0.537776 11.2195C1.09258 13.2901 2.70986 14.9074 4.78041 15.4622C5.5454 15.6672 6.44361 15.667 7.83377 15.6667L8 15.6666H10.6667C13.4281 15.6666 15.6667 13.4281 15.6667 10.6666V9.99997C15.6667 9.44768 15.2189 8.99997 14.6667 8.99997C14.1144 8.99997 13.6667 9.44768 13.6667 9.99997V10.6666C13.6667 12.3235 12.3235 13.6666 10.6667 13.6666H8C6.38566 13.6666 5.77466 13.658 5.29805 13.5303C3.91769 13.1605 2.8395 12.0823 2.46963 10.7019C2.34192 10.2253 2.33333 9.6143 2.33333 7.99997C2.33333 6.38563 2.34192 5.77463 2.46963 5.29802C2.8395 3.91766 3.91769 2.83947 5.29805 2.4696C5.77466 2.34189 6.38566 2.3333 8 2.3333H10C10.5523 2.3333 11 1.88558 11 1.3333C11 0.781015 10.5523 0.3333 10 0.3333H8ZM14.7071 4.70707C15.0976 4.31655 15.0976 3.68338 14.7071 3.29286C14.3166 2.90234 13.6834 2.90234 13.2929 3.29286L7.95443 8.63132L5.99183 6.91406C5.5762 6.55037 4.94444 6.59249 4.58075 7.00813C4.21707 7.42377 4.25919 8.05553 4.67483 8.41921L7.34149 10.7525C7.7377 11.0992 8.33484 11.0793 8.7071 10.7071L14.7071 4.70707Z" fill="#2F9446"/>
</g>
<defs>
<clipPath id="clip0_4419_4734">
<rect width="16" height="16" fill="white"/>
</clipPath>
</defs>
</svg>
