<svg width="60" height="60" viewBox="0 0 60 60" fill="none" xmlns="http://www.w3.org/2000/svg">
<g id="Business / growth graph">
<path id="Vector" d="M17.4999 40C18.4945 40 19.4483 39.6049 20.1516 38.9016C20.8549 38.1984 21.2499 37.2446 21.2499 36.25C21.2621 36.1253 21.2621 35.9997 21.2499 35.875L28.2249 28.9H28.7999H29.3749L33.3999 32.925C33.3999 32.925 33.3999 33.05 33.3999 33.125C33.3999 34.1196 33.795 35.0734 34.4983 35.7767C35.2016 36.4799 36.1554 36.875 37.1499 36.875C38.1445 36.875 39.0983 36.4799 39.8016 35.7767C40.5049 35.0734 40.8999 34.1196 40.8999 33.125V32.925L49.9999 23.75C50.7416 23.75 51.4666 23.5301 52.0833 23.118C52.7 22.706 53.1807 22.1203 53.4645 21.4351C53.7483 20.7498 53.8226 19.9958 53.6779 19.2684C53.5332 18.541 53.176 17.8728 52.6516 17.3483C52.1271 16.8239 51.459 16.4667 50.7315 16.3221C50.0041 16.1774 49.2501 16.2516 48.5649 16.5355C47.8797 16.8193 47.294 17.2999 46.8819 17.9166C46.4699 18.5333 46.2499 19.2583 46.2499 20C46.2377 20.1247 46.2377 20.2503 46.2499 20.375L37.2249 29.4H36.8249L32.4999 25C32.4999 24.0054 32.1049 23.0516 31.4016 22.3483C30.6983 21.6451 29.7445 21.25 28.7499 21.25C27.7554 21.25 26.8015 21.6451 26.0983 22.3483C25.395 23.0516 24.9999 24.0054 24.9999 25L17.4999 32.5C16.5054 32.5 15.5515 32.8951 14.8483 33.5983C14.145 34.3016 13.7499 35.2554 13.7499 36.25C13.7499 37.2446 14.145 38.1984 14.8483 38.9016C15.5515 39.6049 16.5054 40 17.4999 40ZM51.2499 50H8.74994V7.5C8.74994 6.83696 8.48655 6.20107 8.01771 5.73223C7.54887 5.26339 6.91298 5 6.24994 5C5.5869 5 4.95101 5.26339 4.48217 5.73223C4.01333 6.20107 3.74994 6.83696 3.74994 7.5V52.5C3.74994 53.163 4.01333 53.7989 4.48217 54.2678C4.95101 54.7366 5.5869 55 6.24994 55H51.2499C51.913 55 52.5489 54.7366 53.0177 54.2678C53.4865 53.7989 53.7499 53.163 53.7499 52.5C53.7499 51.837 53.4865 51.2011 53.0177 50.7322C52.5489 50.2634 51.913 50 51.2499 50Z" fill="#2B2B2B"/>
</g>
</svg>
