<svg width="60" height="60" viewBox="0 0 60 60" fill="none" xmlns="http://www.w3.org/2000/svg">
<g id="Business / money">
<path id="Vector" d="M53.0499 30.0001C54.2943 28.631 54.9888 26.8503 54.9999 25.0001C54.9999 23.011 54.2097 21.1033 52.8032 19.6968C51.3967 18.2903 49.489 17.5001 47.4999 17.5001H34.5499C34.9492 16.3706 35.0722 15.1618 34.9084 13.9749C34.7447 12.7881 34.299 11.6578 33.6086 10.6786C32.9183 9.69938 32.0034 8.89981 30.9406 8.34682C29.8778 7.79382 28.698 7.50349 27.4999 7.50012H12.4999C10.5108 7.50012 8.6031 8.2903 7.19658 9.69682C5.79005 11.1033 4.99988 13.011 4.99988 15.0001C5.0109 16.8503 5.70541 18.631 6.94988 20.0001C5.71999 21.3752 5.04005 23.1553 5.04005 25.0001C5.04005 26.845 5.71999 28.6251 6.94988 30.0001C5.71999 31.3752 5.04005 33.1553 5.04005 35.0001C5.04005 36.845 5.71999 38.6251 6.94988 40.0001C5.70541 41.3692 5.0109 43.15 4.99988 45.0001C4.99988 46.9892 5.79005 48.8969 7.19658 50.3034C8.6031 51.7099 10.5108 52.5001 12.4999 52.5001H47.4999C48.9443 52.4924 50.3557 52.0678 51.5646 51.2772C52.7735 50.4867 53.7284 49.3639 54.3145 48.0437C54.9007 46.7236 55.0931 45.2623 54.8688 43.8354C54.6445 42.4085 54.0128 41.0767 53.0499 40.0001C54.2798 38.6251 54.9597 36.845 54.9597 35.0001C54.9597 33.1553 54.2798 31.3752 53.0499 30.0001ZM27.4999 47.5001H12.4999C11.8368 47.5001 11.201 47.2367 10.7321 46.7679C10.2633 46.299 9.99988 45.6632 9.99988 45.0001C9.99988 44.3371 10.2633 43.7012 10.7321 43.2324C11.201 42.7635 11.8368 42.5001 12.4999 42.5001H27.4999C28.1629 42.5001 28.7988 42.7635 29.2676 43.2324C29.7365 43.7012 29.9999 44.3371 29.9999 45.0001C29.9999 45.6632 29.7365 46.299 29.2676 46.7679C28.7988 47.2367 28.1629 47.5001 27.4999 47.5001ZM27.4999 37.5001H12.4999C11.8368 37.5001 11.201 37.2367 10.7321 36.7679C10.2633 36.299 9.99988 35.6632 9.99988 35.0001C9.99988 34.3371 10.2633 33.7012 10.7321 33.2324C11.201 32.7635 11.8368 32.5001 12.4999 32.5001H27.4999C28.1629 32.5001 28.7988 32.7635 29.2676 33.2324C29.7365 33.7012 29.9999 34.3371 29.9999 35.0001C29.9999 35.6632 29.7365 36.299 29.2676 36.7679C28.7988 37.2367 28.1629 37.5001 27.4999 37.5001ZM27.4999 27.5001H12.4999C11.8368 27.5001 11.201 27.2367 10.7321 26.7679C10.2633 26.299 9.99988 25.6632 9.99988 25.0001C9.99988 24.3371 10.2633 23.7012 10.7321 23.2324C11.201 22.7635 11.8368 22.5001 12.4999 22.5001H27.4999C28.1629 22.5001 28.7988 22.7635 29.2676 23.2324C29.7365 23.7012 29.9999 24.3371 29.9999 25.0001C29.9999 25.6632 29.7365 26.299 29.2676 26.7679C28.7988 27.2367 28.1629 27.5001 27.4999 27.5001ZM27.4999 17.5001H12.4999C11.8368 17.5001 11.201 17.2367 10.7321 16.7679C10.2633 16.299 9.99988 15.6632 9.99988 15.0001C9.99988 14.3371 10.2633 13.7012 10.7321 13.2324C11.201 12.7635 11.8368 12.5001 12.4999 12.5001H27.4999C28.1629 12.5001 28.7988 12.7635 29.2676 13.2324C29.7365 13.7012 29.9999 14.3371 29.9999 15.0001C29.9999 15.6632 29.7365 16.299 29.2676 16.7679C28.7988 17.2367 28.1629 17.5001 27.4999 17.5001ZM49.2249 46.7751C49.0033 47.0089 48.7355 47.194 48.4385 47.3188C48.1416 47.4436 47.8219 47.5054 47.4999 47.5001H34.5499C35.1494 45.8874 35.1494 44.1129 34.5499 42.5001H47.4999C48.1629 42.5001 48.7988 42.7635 49.2676 43.2324C49.7365 43.7012 49.9999 44.3371 49.9999 45.0001C49.9953 45.3327 49.9243 45.6609 49.7913 45.9657C49.6582 46.2705 49.4656 46.5457 49.2249 46.7751ZM49.2249 36.7751C49.0033 37.0089 48.7355 37.194 48.4385 37.3188C48.1416 37.4436 47.8219 37.5054 47.4999 37.5001H34.5499C35.1494 35.8874 35.1494 34.1129 34.5499 32.5001H47.4999C48.1629 32.5001 48.7988 32.7635 49.2676 33.2324C49.7365 33.7012 49.9999 34.3371 49.9999 35.0001C49.9953 35.3327 49.9243 35.6609 49.7913 35.9657C49.6582 36.2705 49.4656 36.5457 49.2249 36.7751ZM49.2249 26.7751C49.0033 27.0089 48.7355 27.194 48.4385 27.3188C48.1416 27.4436 47.8219 27.5054 47.4999 27.5001H34.5499C35.1494 25.8874 35.1494 24.1129 34.5499 22.5001H47.4999C48.1629 22.5001 48.7988 22.7635 49.2676 23.2324C49.7365 23.7012 49.9999 24.3371 49.9999 25.0001C49.9953 25.3327 49.9243 25.6609 49.7913 25.9657C49.6582 26.2705 49.4656 26.5457 49.2249 26.7751Z" fill="#2B2B2B"/>
</g>
</svg>
