<svg width="136" height="13" viewBox="0 0 136 13" fill="none" xmlns="http://www.w3.org/2000/svg">
<path d="M3.37207 6.6543H1.09277V5.73438H3.37207C3.81348 5.73438 4.1709 5.66406 4.44434 5.52344C4.71777 5.38281 4.91699 5.1875 5.04199 4.9375C5.1709 4.6875 5.23535 4.40234 5.23535 4.08203C5.23535 3.78906 5.1709 3.51367 5.04199 3.25586C4.91699 2.99805 4.71777 2.79102 4.44434 2.63477C4.1709 2.47461 3.81348 2.39453 3.37207 2.39453H1.35645V10H0.225586V1.46875H3.37207C4.0166 1.46875 4.56152 1.58008 5.00684 1.80273C5.45215 2.02539 5.79004 2.33398 6.02051 2.72852C6.25098 3.11914 6.36621 3.56641 6.36621 4.07031C6.36621 4.61719 6.25098 5.08398 6.02051 5.4707C5.79004 5.85742 5.45215 6.15234 5.00684 6.35547C4.56152 6.55469 4.0166 6.6543 3.37207 6.6543ZM7.2627 6.90039V6.76562C7.2627 6.30859 7.3291 5.88477 7.46191 5.49414C7.59473 5.09961 7.78613 4.75781 8.03613 4.46875C8.28613 4.17578 8.58887 3.94922 8.94434 3.78906C9.2998 3.625 9.69824 3.54297 10.1396 3.54297C10.585 3.54297 10.9854 3.625 11.3408 3.78906C11.7002 3.94922 12.0049 4.17578 12.2549 4.46875C12.5088 4.75781 12.7021 5.09961 12.835 5.49414C12.9678 5.88477 13.0342 6.30859 13.0342 6.76562V6.90039C13.0342 7.35742 12.9678 7.78125 12.835 8.17188C12.7021 8.5625 12.5088 8.9043 12.2549 9.19727C12.0049 9.48633 11.7021 9.71289 11.3467 9.87695C10.9951 10.0371 10.5967 10.1172 10.1514 10.1172C9.70605 10.1172 9.30566 10.0371 8.9502 9.87695C8.59473 9.71289 8.29004 9.48633 8.03613 9.19727C7.78613 8.9043 7.59473 8.5625 7.46191 8.17188C7.3291 7.78125 7.2627 7.35742 7.2627 6.90039ZM8.34668 6.76562V6.90039C8.34668 7.2168 8.38379 7.51562 8.45801 7.79688C8.53223 8.07422 8.64355 8.32031 8.79199 8.53516C8.94434 8.75 9.13379 8.91992 9.36035 9.04492C9.58691 9.16602 9.85059 9.22656 10.1514 9.22656C10.4482 9.22656 10.708 9.16602 10.9307 9.04492C11.1572 8.91992 11.3447 8.75 11.4932 8.53516C11.6416 8.32031 11.7529 8.07422 11.8271 7.79688C11.9053 7.51562 11.9443 7.2168 11.9443 6.90039V6.76562C11.9443 6.45312 11.9053 6.1582 11.8271 5.88086C11.7529 5.59961 11.6396 5.35156 11.4873 5.13672C11.3389 4.91797 11.1514 4.74609 10.9248 4.62109C10.7021 4.49609 10.4404 4.43359 10.1396 4.43359C9.84277 4.43359 9.58105 4.49609 9.35449 4.62109C9.13184 4.74609 8.94434 4.91797 8.79199 5.13672C8.64355 5.35156 8.53223 5.59961 8.45801 5.88086C8.38379 6.1582 8.34668 6.45312 8.34668 6.76562ZM15.999 8.875L17.6279 3.66016H18.3428L18.2021 4.69727L16.5439 10H15.8467L15.999 8.875ZM14.9033 3.66016L16.292 8.93359L16.3916 10H15.6592L13.8193 3.66016H14.9033ZM19.9014 8.89258L21.2256 3.66016H22.3037L20.4639 10H19.7373L19.9014 8.89258ZM18.501 3.66016L20.0947 8.78711L20.2764 10H19.585L17.8799 4.68555L17.7393 3.66016H18.501ZM26.0479 10.1172C25.6064 10.1172 25.2061 10.043 24.8467 9.89453C24.4912 9.74219 24.1846 9.5293 23.9268 9.25586C23.6729 8.98242 23.4775 8.6582 23.3408 8.2832C23.2041 7.9082 23.1357 7.49805 23.1357 7.05273V6.80664C23.1357 6.29102 23.2119 5.83203 23.3643 5.42969C23.5166 5.02344 23.7236 4.67969 23.9854 4.39844C24.2471 4.11719 24.5439 3.9043 24.876 3.75977C25.208 3.61523 25.5518 3.54297 25.9072 3.54297C26.3604 3.54297 26.751 3.62109 27.0791 3.77734C27.4111 3.93359 27.6826 4.15234 27.8936 4.43359C28.1045 4.71094 28.2607 5.03906 28.3623 5.41797C28.4639 5.79297 28.5146 6.20312 28.5146 6.64844V7.13477H23.7803V6.25H27.4307V6.16797C27.415 5.88672 27.3564 5.61328 27.2549 5.34766C27.1572 5.08203 27.001 4.86328 26.7861 4.69141C26.5713 4.51953 26.2783 4.43359 25.9072 4.43359C25.6611 4.43359 25.4346 4.48633 25.2275 4.5918C25.0205 4.69336 24.8428 4.8457 24.6943 5.04883C24.5459 5.25195 24.4307 5.5 24.3486 5.79297C24.2666 6.08594 24.2256 6.42383 24.2256 6.80664V7.05273C24.2256 7.35352 24.2666 7.63672 24.3486 7.90234C24.4346 8.16406 24.5576 8.39453 24.7178 8.59375C24.8818 8.79297 25.0791 8.94922 25.3096 9.0625C25.5439 9.17578 25.8096 9.23242 26.1064 9.23242C26.4893 9.23242 26.8135 9.1543 27.0791 8.99805C27.3447 8.8418 27.5771 8.63281 27.7764 8.37109L28.4326 8.89258C28.2959 9.09961 28.1221 9.29688 27.9111 9.48438C27.7002 9.67188 27.4404 9.82422 27.1318 9.94141C26.8271 10.0586 26.4658 10.1172 26.0479 10.1172ZM30.8643 4.65625V10H29.7803V3.66016H30.835L30.8643 4.65625ZM32.8447 3.625L32.8389 4.63281C32.749 4.61328 32.6631 4.60156 32.5811 4.59766C32.5029 4.58984 32.4131 4.58594 32.3115 4.58594C32.0615 4.58594 31.8408 4.625 31.6494 4.70312C31.458 4.78125 31.2959 4.89062 31.1631 5.03125C31.0303 5.17188 30.9248 5.33984 30.8467 5.53516C30.7725 5.72656 30.7236 5.9375 30.7002 6.16797L30.3955 6.34375C30.3955 5.96094 30.4326 5.60156 30.5068 5.26562C30.585 4.92969 30.7041 4.63281 30.8643 4.375C31.0244 4.11328 31.2275 3.91016 31.4736 3.76562C31.7236 3.61719 32.0205 3.54297 32.3643 3.54297C32.4424 3.54297 32.5322 3.55273 32.6338 3.57227C32.7354 3.58789 32.8057 3.60547 32.8447 3.625ZM36.3604 10.1172C35.9189 10.1172 35.5186 10.043 35.1592 9.89453C34.8037 9.74219 34.4971 9.5293 34.2393 9.25586C33.9854 8.98242 33.79 8.6582 33.6533 8.2832C33.5166 7.9082 33.4482 7.49805 33.4482 7.05273V6.80664C33.4482 6.29102 33.5244 5.83203 33.6768 5.42969C33.8291 5.02344 34.0361 4.67969 34.2979 4.39844C34.5596 4.11719 34.8564 3.9043 35.1885 3.75977C35.5205 3.61523 35.8643 3.54297 36.2197 3.54297C36.6729 3.54297 37.0635 3.62109 37.3916 3.77734C37.7236 3.93359 37.9951 4.15234 38.2061 4.43359C38.417 4.71094 38.5732 5.03906 38.6748 5.41797C38.7764 5.79297 38.8271 6.20312 38.8271 6.64844V7.13477H34.0928V6.25H37.7432V6.16797C37.7275 5.88672 37.6689 5.61328 37.5674 5.34766C37.4697 5.08203 37.3135 4.86328 37.0986 4.69141C36.8838 4.51953 36.5908 4.43359 36.2197 4.43359C35.9736 4.43359 35.7471 4.48633 35.54 4.5918C35.333 4.69336 35.1553 4.8457 35.0068 5.04883C34.8584 5.25195 34.7432 5.5 34.6611 5.79297C34.5791 6.08594 34.5381 6.42383 34.5381 6.80664V7.05273C34.5381 7.35352 34.5791 7.63672 34.6611 7.90234C34.7471 8.16406 34.8701 8.39453 35.0303 8.59375C35.1943 8.79297 35.3916 8.94922 35.6221 9.0625C35.8564 9.17578 36.1221 9.23242 36.4189 9.23242C36.8018 9.23242 37.126 9.1543 37.3916 8.99805C37.6572 8.8418 37.8896 8.63281 38.0889 8.37109L38.7451 8.89258C38.6084 9.09961 38.4346 9.29688 38.2236 9.48438C38.0127 9.67188 37.7529 9.82422 37.4443 9.94141C37.1396 10.0586 36.7783 10.1172 36.3604 10.1172ZM44.0889 8.76953V1H45.1787V10H44.1826L44.0889 8.76953ZM39.8232 6.90039V6.77734C39.8232 6.29297 39.8818 5.85352 39.999 5.45898C40.1201 5.06055 40.29 4.71875 40.5088 4.43359C40.7314 4.14844 40.9951 3.92969 41.2998 3.77734C41.6084 3.62109 41.9521 3.54297 42.3311 3.54297C42.7295 3.54297 43.0771 3.61328 43.374 3.75391C43.6748 3.89062 43.9287 4.0918 44.1357 4.35742C44.3467 4.61914 44.5127 4.93555 44.6338 5.30664C44.7549 5.67773 44.8389 6.09766 44.8857 6.56641V7.10547C44.8428 7.57031 44.7588 7.98828 44.6338 8.35938C44.5127 8.73047 44.3467 9.04688 44.1357 9.30859C43.9287 9.57031 43.6748 9.77148 43.374 9.91211C43.0732 10.0488 42.7217 10.1172 42.3193 10.1172C41.9482 10.1172 41.6084 10.0371 41.2998 9.87695C40.9951 9.7168 40.7314 9.49219 40.5088 9.20312C40.29 8.91406 40.1201 8.57422 39.999 8.18359C39.8818 7.78906 39.8232 7.36133 39.8232 6.90039ZM40.9131 6.77734V6.90039C40.9131 7.2168 40.9443 7.51367 41.0068 7.79102C41.0732 8.06836 41.1748 8.3125 41.3115 8.52344C41.4482 8.73438 41.6221 8.90039 41.833 9.02148C42.0439 9.13867 42.2959 9.19727 42.5889 9.19727C42.9482 9.19727 43.2432 9.12109 43.4736 8.96875C43.708 8.81641 43.8955 8.61523 44.0361 8.36523C44.1768 8.11523 44.2861 7.84375 44.3643 7.55078V6.13867C44.3174 5.92383 44.249 5.7168 44.1592 5.51758C44.0732 5.31445 43.96 5.13477 43.8193 4.97852C43.6826 4.81836 43.5127 4.69141 43.3096 4.59766C43.1104 4.50391 42.874 4.45703 42.6006 4.45703C42.3037 4.45703 42.0479 4.51953 41.833 4.64453C41.6221 4.76562 41.4482 4.93359 41.3115 5.14844C41.1748 5.35938 41.0732 5.60547 41.0068 5.88672C40.9443 6.16406 40.9131 6.46094 40.9131 6.77734ZM49.8369 1H50.9268V8.76953L50.833 10H49.8369V1ZM55.21 6.77734V6.90039C55.21 7.36133 55.1553 7.78906 55.0459 8.18359C54.9365 8.57422 54.7764 8.91406 54.5654 9.20312C54.3545 9.49219 54.0967 9.7168 53.792 9.87695C53.4873 10.0371 53.1377 10.1172 52.7432 10.1172C52.3408 10.1172 51.9873 10.0488 51.6826 9.91211C51.3818 9.77148 51.1279 9.57031 50.9209 9.30859C50.7139 9.04688 50.5479 8.73047 50.4229 8.35938C50.3018 7.98828 50.2178 7.57031 50.1709 7.10547V6.56641C50.2178 6.09766 50.3018 5.67773 50.4229 5.30664C50.5479 4.93555 50.7139 4.61914 50.9209 4.35742C51.1279 4.0918 51.3818 3.89062 51.6826 3.75391C51.9834 3.61328 52.333 3.54297 52.7314 3.54297C53.1299 3.54297 53.4834 3.62109 53.792 3.77734C54.1006 3.92969 54.3584 4.14844 54.5654 4.43359C54.7764 4.71875 54.9365 5.06055 55.0459 5.45898C55.1553 5.85352 55.21 6.29297 55.21 6.77734ZM54.1201 6.90039V6.77734C54.1201 6.46094 54.0908 6.16406 54.0322 5.88672C53.9736 5.60547 53.8799 5.35938 53.751 5.14844C53.6221 4.93359 53.4521 4.76562 53.2412 4.64453C53.0303 4.51953 52.7705 4.45703 52.4619 4.45703C52.1885 4.45703 51.9502 4.50391 51.7471 4.59766C51.5479 4.69141 51.3779 4.81836 51.2373 4.97852C51.0967 5.13477 50.9814 5.31445 50.8916 5.51758C50.8057 5.7168 50.7412 5.92383 50.6982 6.13867V7.55078C50.7607 7.82422 50.8623 8.08789 51.0029 8.3418C51.1475 8.5918 51.3389 8.79688 51.5771 8.95703C51.8193 9.11719 52.1182 9.19727 52.4736 9.19727C52.7666 9.19727 53.0166 9.13867 53.2236 9.02148C53.4346 8.90039 53.6045 8.73438 53.7334 8.52344C53.8662 8.3125 53.9639 8.06836 54.0264 7.79102C54.0889 7.51367 54.1201 7.2168 54.1201 6.90039ZM58.292 9.34375L60.0557 3.66016H61.2158L58.6729 10.9785C58.6143 11.1348 58.5361 11.3027 58.4385 11.4824C58.3447 11.666 58.2236 11.8398 58.0752 12.0039C57.9268 12.168 57.7471 12.3008 57.5361 12.4023C57.3291 12.5078 57.0811 12.5605 56.792 12.5605C56.7061 12.5605 56.5967 12.5488 56.4639 12.5254C56.3311 12.502 56.2373 12.4824 56.1826 12.4668L56.1768 11.5879C56.208 11.5918 56.2568 11.5957 56.3232 11.5996C56.3936 11.6074 56.4424 11.6113 56.4697 11.6113C56.7158 11.6113 56.9248 11.5781 57.0967 11.5117C57.2686 11.4492 57.4131 11.3418 57.5303 11.1895C57.6514 11.041 57.7549 10.8359 57.8408 10.5742L58.292 9.34375ZM56.9971 3.66016L58.6436 8.58203L58.9248 9.72461L58.1455 10.123L55.8135 3.66016H56.9971Z" fill="#333333"/>
<path d="M100.972 10H99.2725V3.09766C99.2725 2.61719 99.3662 2.21289 99.5537 1.88477C99.7451 1.55273 100.013 1.30273 100.356 1.13477C100.704 0.962891 101.116 0.876953 101.593 0.876953C101.749 0.876953 101.899 0.888672 102.044 0.912109C102.188 0.931641 102.329 0.957031 102.466 0.988281L102.448 2.25977C102.374 2.24023 102.296 2.22656 102.214 2.21875C102.132 2.21094 102.036 2.20703 101.927 2.20703C101.724 2.20703 101.55 2.24219 101.405 2.3125C101.265 2.37891 101.157 2.47852 101.083 2.61133C101.009 2.74414 100.972 2.90625 100.972 3.09766V10ZM102.237 3.66016V4.85547H98.3291V3.66016H102.237ZM104.903 3.66016V10H103.21V3.66016H104.903ZM103.104 2.00781C103.104 1.76172 103.19 1.55859 103.362 1.39844C103.534 1.23828 103.765 1.1582 104.054 1.1582C104.339 1.1582 104.567 1.23828 104.739 1.39844C104.915 1.55859 105.003 1.76172 105.003 2.00781C105.003 2.25391 104.915 2.45703 104.739 2.61719C104.567 2.77734 104.339 2.85742 104.054 2.85742C103.765 2.85742 103.534 2.77734 103.362 2.61719C103.19 2.45703 103.104 2.25391 103.104 2.00781ZM107.95 5.01367V10H106.263V3.66016H107.845L107.95 5.01367ZM107.704 6.60742H107.247C107.247 6.13867 107.308 5.7168 107.429 5.3418C107.55 4.96289 107.72 4.64062 107.938 4.375C108.157 4.10547 108.417 3.90039 108.718 3.75977C109.022 3.61523 109.362 3.54297 109.737 3.54297C110.034 3.54297 110.306 3.58594 110.552 3.67188C110.798 3.75781 111.009 3.89453 111.185 4.08203C111.364 4.26953 111.501 4.51758 111.595 4.82617C111.692 5.13477 111.741 5.51172 111.741 5.95703V10H110.042V5.95117C110.042 5.66992 110.003 5.45117 109.925 5.29492C109.847 5.13867 109.731 5.0293 109.579 4.9668C109.431 4.90039 109.247 4.86719 109.028 4.86719C108.802 4.86719 108.604 4.91211 108.437 5.00195C108.272 5.0918 108.136 5.2168 108.026 5.37695C107.921 5.5332 107.841 5.7168 107.786 5.92773C107.731 6.13867 107.704 6.36523 107.704 6.60742ZM116.452 8.24805C116.452 8.12695 116.417 8.01758 116.347 7.91992C116.276 7.82227 116.146 7.73242 115.954 7.65039C115.767 7.56445 115.495 7.48633 115.14 7.41602C114.819 7.3457 114.521 7.25781 114.243 7.15234C113.97 7.04297 113.731 6.91211 113.528 6.75977C113.329 6.60742 113.173 6.42773 113.06 6.2207C112.946 6.00977 112.89 5.76953 112.89 5.5C112.89 5.23438 112.946 4.98438 113.06 4.75C113.177 4.51562 113.343 4.30859 113.558 4.12891C113.776 3.94531 114.042 3.80273 114.354 3.70117C114.671 3.5957 115.026 3.54297 115.421 3.54297C115.972 3.54297 116.444 3.63086 116.839 3.80664C117.237 3.98242 117.542 4.22461 117.753 4.5332C117.968 4.83789 118.075 5.18555 118.075 5.57617H116.388C116.388 5.41211 116.353 5.26562 116.282 5.13672C116.216 5.00391 116.11 4.90039 115.966 4.82617C115.825 4.74805 115.642 4.70898 115.415 4.70898C115.228 4.70898 115.065 4.74219 114.929 4.80859C114.792 4.87109 114.687 4.95703 114.612 5.06641C114.542 5.17188 114.507 5.28906 114.507 5.41797C114.507 5.51562 114.526 5.60352 114.565 5.68164C114.608 5.75586 114.677 5.82422 114.771 5.88672C114.864 5.94922 114.985 6.00781 115.134 6.0625C115.286 6.11328 115.474 6.16016 115.696 6.20312C116.153 6.29688 116.562 6.41992 116.921 6.57227C117.28 6.7207 117.565 6.92383 117.776 7.18164C117.987 7.43555 118.093 7.76953 118.093 8.18359C118.093 8.46484 118.03 8.72266 117.905 8.95703C117.78 9.19141 117.601 9.39648 117.366 9.57227C117.132 9.74414 116.851 9.87891 116.522 9.97656C116.198 10.0703 115.833 10.1172 115.427 10.1172C114.837 10.1172 114.337 10.0117 113.927 9.80078C113.521 9.58984 113.212 9.32227 113.001 8.99805C112.794 8.66992 112.69 8.33398 112.69 7.99023H114.29C114.298 8.2207 114.356 8.40625 114.466 8.54688C114.579 8.6875 114.722 8.78906 114.894 8.85156C115.069 8.91406 115.259 8.94531 115.462 8.94531C115.681 8.94531 115.862 8.91602 116.007 8.85742C116.151 8.79492 116.261 8.71289 116.335 8.61133C116.413 8.50586 116.452 8.38477 116.452 8.24805ZM122.106 10.1172C121.614 10.1172 121.173 10.0391 120.782 9.88281C120.392 9.72266 120.06 9.50195 119.786 9.2207C119.517 8.93945 119.31 8.61328 119.165 8.24219C119.021 7.86719 118.948 7.46875 118.948 7.04688V6.8125C118.948 6.33203 119.017 5.89258 119.153 5.49414C119.29 5.0957 119.485 4.75 119.739 4.45703C119.997 4.16406 120.31 3.93945 120.677 3.7832C121.044 3.62305 121.458 3.54297 121.919 3.54297C122.368 3.54297 122.767 3.61719 123.114 3.76562C123.462 3.91406 123.753 4.125 123.987 4.39844C124.226 4.67188 124.405 5 124.526 5.38281C124.647 5.76172 124.708 6.18359 124.708 6.64844V7.35156H119.669V6.22656H123.05V6.09766C123.05 5.86328 123.007 5.6543 122.921 5.4707C122.839 5.2832 122.714 5.13477 122.546 5.02539C122.378 4.91602 122.163 4.86133 121.901 4.86133C121.679 4.86133 121.487 4.91016 121.327 5.00781C121.167 5.10547 121.036 5.24219 120.935 5.41797C120.837 5.59375 120.763 5.80078 120.712 6.03906C120.665 6.27344 120.642 6.53125 120.642 6.8125V7.04688C120.642 7.30078 120.677 7.53516 120.747 7.75C120.821 7.96484 120.925 8.15039 121.058 8.30664C121.194 8.46289 121.358 8.58398 121.55 8.66992C121.745 8.75586 121.966 8.79883 122.212 8.79883C122.517 8.79883 122.8 8.74023 123.062 8.62305C123.327 8.50195 123.556 8.32031 123.747 8.07812L124.567 8.96875C124.435 9.16016 124.253 9.34375 124.022 9.51953C123.796 9.69531 123.522 9.83984 123.202 9.95312C122.882 10.0625 122.517 10.1172 122.106 10.1172ZM127.356 5.04297V10H125.669V3.66016H127.257L127.356 5.04297ZM129.267 3.61914L129.237 5.18359C129.155 5.17188 129.056 5.16211 128.938 5.1543C128.825 5.14258 128.722 5.13672 128.628 5.13672C128.39 5.13672 128.183 5.16797 128.007 5.23047C127.835 5.28906 127.69 5.37695 127.573 5.49414C127.46 5.61133 127.374 5.75391 127.315 5.92188C127.261 6.08984 127.229 6.28125 127.222 6.49609L126.882 6.39062C126.882 5.98047 126.923 5.60352 127.005 5.25977C127.087 4.91211 127.206 4.60938 127.362 4.35156C127.522 4.09375 127.718 3.89453 127.948 3.75391C128.179 3.61328 128.442 3.54297 128.739 3.54297C128.833 3.54297 128.929 3.55078 129.026 3.56641C129.124 3.57812 129.204 3.5957 129.267 3.61914ZM132.325 8.76953L133.731 3.66016H135.495L133.356 10H132.29L132.325 8.76953ZM131.358 3.66016L132.771 8.77539L132.8 10H131.728L129.589 3.66016H131.358Z" fill="#00A859"/>
<path d="M70.0518 7.16992H71.8037C71.7686 7.74414 71.6104 8.25391 71.3291 8.69922C71.0518 9.14453 70.6631 9.49219 70.1631 9.74219C69.667 9.99219 69.0693 10.1172 68.3701 10.1172C67.8232 10.1172 67.333 10.0234 66.8994 9.83594C66.4658 9.64453 66.0947 9.37109 65.7861 9.01562C65.4814 8.66016 65.249 8.23047 65.0889 7.72656C64.9287 7.22266 64.8486 6.6582 64.8486 6.0332V5.44141C64.8486 4.81641 64.9307 4.25195 65.0947 3.74805C65.2627 3.24023 65.501 2.80859 65.8096 2.45312C66.1221 2.09766 66.4951 1.82422 66.9287 1.63281C67.3623 1.44141 67.8467 1.3457 68.3818 1.3457C69.0928 1.3457 69.6924 1.47461 70.1807 1.73242C70.6729 1.99023 71.0537 2.3457 71.3232 2.79883C71.5967 3.25195 71.7607 3.76758 71.8154 4.3457H70.0576C70.0381 4.00195 69.9697 3.71094 69.8525 3.47266C69.7354 3.23047 69.5576 3.04883 69.3193 2.92773C69.085 2.80273 68.7725 2.74023 68.3818 2.74023C68.0889 2.74023 67.833 2.79492 67.6143 2.9043C67.3955 3.01367 67.2119 3.17969 67.0635 3.40234C66.915 3.625 66.8037 3.90625 66.7295 4.24609C66.6592 4.58203 66.624 4.97656 66.624 5.42969V6.0332C66.624 6.47461 66.6572 6.86328 66.7236 7.19922C66.79 7.53125 66.8916 7.8125 67.0283 8.04297C67.1689 8.26953 67.3486 8.44141 67.5674 8.55859C67.79 8.67188 68.0576 8.72852 68.3701 8.72852C68.7373 8.72852 69.04 8.66992 69.2783 8.55273C69.5166 8.43555 69.6982 8.26172 69.8232 8.03125C69.9521 7.80078 70.0283 7.51367 70.0518 7.16992ZM76.4268 2.92773L74.1064 10H72.2373L75.4072 1.46875H76.5967L76.4268 2.92773ZM78.3545 10L76.0283 2.92773L75.8408 1.46875H77.042L80.2295 10H78.3545ZM78.249 6.82422V8.20117H73.7432V6.82422H78.249ZM81.8232 1.46875H83.3115L85.5029 7.73242L87.6943 1.46875H89.1826L86.1006 10H84.9053L81.8232 1.46875ZM81.0205 1.46875H82.5029L82.7725 7.57422V10H81.0205V1.46875ZM88.5029 1.46875H89.9912V10H88.2334V7.57422L88.5029 1.46875ZM95.9736 7.76758C95.9736 7.61523 95.9502 7.47852 95.9033 7.35742C95.8604 7.23242 95.7783 7.11914 95.6572 7.01758C95.5361 6.91211 95.3662 6.80859 95.1475 6.70703C94.9287 6.60547 94.6455 6.5 94.2979 6.39062C93.9111 6.26562 93.5439 6.125 93.1963 5.96875C92.8525 5.8125 92.5479 5.63086 92.2822 5.42383C92.0205 5.21289 91.8135 4.96875 91.6611 4.69141C91.5127 4.41406 91.4385 4.0918 91.4385 3.72461C91.4385 3.36914 91.5166 3.04687 91.6729 2.75781C91.8291 2.46484 92.0479 2.21484 92.3291 2.00781C92.6104 1.79688 92.9424 1.63477 93.3252 1.52148C93.7119 1.4082 94.1357 1.35156 94.5967 1.35156C95.2256 1.35156 95.7744 1.46484 96.2432 1.69141C96.7119 1.91797 97.0752 2.22852 97.333 2.62305C97.5947 3.01758 97.7256 3.46875 97.7256 3.97656H95.9795C95.9795 3.72656 95.9268 3.50781 95.8213 3.32031C95.7197 3.12891 95.5635 2.97852 95.3525 2.86914C95.1455 2.75977 94.8838 2.70508 94.5674 2.70508C94.2627 2.70508 94.0088 2.75195 93.8057 2.8457C93.6025 2.93555 93.4502 3.05859 93.3486 3.21484C93.2471 3.36719 93.1963 3.53906 93.1963 3.73047C93.1963 3.875 93.2314 4.00586 93.3018 4.12305C93.376 4.24023 93.4854 4.34961 93.6299 4.45117C93.7744 4.55273 93.9521 4.64844 94.1631 4.73828C94.374 4.82812 94.6182 4.91602 94.8955 5.00195C95.3604 5.14258 95.7686 5.30078 96.1201 5.47656C96.4756 5.65234 96.7725 5.84961 97.0107 6.06836C97.249 6.28711 97.4287 6.53516 97.5498 6.8125C97.6709 7.08984 97.7314 7.4043 97.7314 7.75586C97.7314 8.12695 97.6592 8.45898 97.5146 8.75195C97.3701 9.04492 97.1611 9.29297 96.8877 9.49609C96.6143 9.69922 96.2881 9.85352 95.9092 9.95898C95.5303 10.0645 95.1064 10.1172 94.6377 10.1172C94.2158 10.1172 93.7998 10.0625 93.3896 9.95312C92.9795 9.83984 92.6064 9.66992 92.2705 9.44336C91.9385 9.2168 91.6729 8.92773 91.4736 8.57617C91.2744 8.22461 91.1748 7.80859 91.1748 7.32812H92.9385C92.9385 7.59375 92.9795 7.81836 93.0615 8.00195C93.1436 8.18555 93.2588 8.33398 93.4072 8.44727C93.5596 8.56055 93.7393 8.64258 93.9463 8.69336C94.1572 8.74414 94.3877 8.76953 94.6377 8.76953C94.9424 8.76953 95.1924 8.72656 95.3877 8.64062C95.5869 8.55469 95.7334 8.43555 95.8271 8.2832C95.9248 8.13086 95.9736 7.95898 95.9736 7.76758Z" fill="#00418C"/>
</svg>
