<svg width="158" height="140" viewBox="0 0 158 140" fill="none" xmlns="http://www.w3.org/2000/svg">
<g id="Group 1519">
<path id="Subtract" fill-rule="evenodd" clip-rule="evenodd" d="M8.08693 52.3198C3.76464 52.3198 0.260742 55.8237 0.260742 60.146V132.174C0.260742 136.496 3.76464 140 8.08693 140H35.6572C39.9795 140 43.4834 136.496 43.4834 132.174V60.146C43.4834 55.8237 39.9795 52.3198 35.6572 52.3198H8.08693ZM28.4584 132.179C31.7549 132.179 34.4272 129.507 34.4272 126.21C34.4272 122.914 31.7549 120.241 28.4584 120.241C25.1619 120.241 22.4895 122.914 22.4895 126.21C22.4895 129.507 25.1619 132.179 28.4584 132.179Z" fill="#B7D9FE"/>
<path id="Vector 11 (Stroke)" fill-rule="evenodd" clip-rule="evenodd" d="M100.844 1.92164C106.694 4.00673 111.98 9.10003 113.61 16.2058C113.632 16.3012 113.648 16.3979 113.657 16.4954C114.393 24.1362 114.35 30.1094 113.352 35.9749C112.51 40.9241 111.002 45.7172 108.8 51.2904H145.364C145.55 51.2904 145.734 51.3131 145.914 51.358C152.966 53.1213 156.72 60.1887 156.864 66.4695C156.938 69.6783 156.097 72.9628 154.049 75.52C152.766 77.1216 151.071 78.3592 148.994 79.1053C150.786 82.146 151.021 86.0064 150.091 89.3116C149.1 92.8337 146.689 96.1391 142.974 97.696C144.918 100.719 145.16 104.757 144.227 108.112C143.248 111.633 140.848 114.992 137.152 116.531C137.901 117.48 138.461 118.529 138.833 119.65C139.744 122.395 139.453 125.336 138.447 127.95C136.475 133.069 131.398 137.736 125.194 137.736H62.2123C56.1876 137.736 51.3037 132.852 51.3037 126.827V61.9312C51.3037 56.3872 55.5037 52.4653 60.1766 50.8312C61.6966 50.2997 63.1807 49.5922 64.3 48.4346C72.1925 40.2729 76.0552 34.588 81.7473 24.0256C82.805 21.022 83.3483 18.8285 83.5774 16.515C83.8137 14.1276 83.7259 11.5166 83.419 7.62846C83.3741 7.05918 83.5459 6.49395 83.9001 6.04602C88.1603 0.658104 95.0006 -0.161036 100.844 1.92164ZM88.0051 8.21643C90.7816 5.29551 95.0665 4.66957 99.3234 6.18688C103.829 7.79279 107.877 11.7021 109.165 17.08C109.861 24.3964 109.792 29.9047 108.888 35.2156C107.976 40.5757 106.196 45.8463 103.345 52.683C103.054 53.3818 103.131 54.18 103.551 54.81C103.971 55.44 104.678 55.8185 105.435 55.8185H145.068C149.399 57.0503 152.226 61.7304 152.337 66.5733C152.392 68.9732 151.753 71.1429 150.515 72.6893C149.322 74.1789 147.42 75.2874 144.476 75.3727C143.485 75.4014 142.628 76.0714 142.361 77.0261C142.094 77.9808 142.479 78.9981 143.311 79.5366C145.715 81.0918 146.716 84.5857 145.732 88.0857C144.785 91.4529 142.177 94.1014 138.161 94.1014C137.102 94.1014 136.184 94.8355 135.952 95.8687C135.719 96.902 136.234 97.9582 137.191 98.4115C139.7 99.5999 140.918 103.111 139.864 106.899C138.867 110.486 136.074 113.231 131.779 112.841C130.676 112.74 129.662 113.453 129.383 114.525C129.104 115.598 129.642 116.714 130.655 117.164C132.907 118.165 134.044 119.595 134.536 121.076C135.046 122.615 134.939 124.459 134.221 126.322C132.745 130.156 129.075 133.208 125.194 133.208H62.2123C58.6884 133.208 55.8318 130.351 55.8318 126.827V61.9312C55.8318 58.4076 59.2151 55.2889 63.6119 54.6187C64.0647 54.5497 65.2442 53.931 65.6237 53.5498C75.2118 43.9165 79.4646 37.8221 85.8173 26.0181C85.8719 25.9165 85.9187 25.811 85.9573 25.7023C87.1258 22.4093 87.802 19.8031 88.0834 16.9612C88.3389 14.381 88.2602 11.6856 88.0051 8.21643Z" fill="#B7D9FE"/>
<path id="Vector 11 (Stroke) (Stroke)" fill-rule="evenodd" clip-rule="evenodd" d="M86.5834 26.4306C80.1965 38.2981 75.8957 44.4629 66.2405 54.1636C65.952 54.4534 65.4619 54.7537 65.0522 54.9704C64.8326 55.0865 64.6048 55.195 64.3934 55.2814C64.1974 55.3615 63.9615 55.4454 63.7434 55.4787C59.5956 56.1109 56.7018 58.994 56.7018 61.9315V126.827C56.7018 129.871 59.1691 132.338 62.2127 132.338H125.194C128.632 132.338 132.03 129.594 133.41 126.01C134.072 124.292 134.145 122.659 133.711 121.35C133.303 120.122 132.351 118.87 130.302 117.959C128.901 117.336 128.156 115.791 128.542 114.307C128.928 112.823 130.331 111.836 131.859 111.975C133.79 112.151 135.338 111.623 136.516 110.682C137.707 109.731 138.567 108.319 139.027 106.666C140.017 103.107 138.8 100.136 136.82 99.1978C135.495 98.5703 134.782 97.1084 135.104 95.6783C135.425 94.2483 136.695 93.2322 138.161 93.2322C141.708 93.2322 144.031 90.9253 144.895 87.8506C145.811 84.5942 144.827 81.553 142.839 80.267C141.687 79.5217 141.154 78.1136 141.524 76.7923C141.893 75.4709 143.079 74.5436 144.451 74.5038C147.162 74.4252 148.816 73.4201 149.837 72.146C150.92 70.7935 151.52 68.8376 151.468 66.5936C151.364 62.0569 148.743 57.8367 144.944 56.6884H105.435C104.387 56.6884 103.409 56.1646 102.828 55.2926C102.247 54.4206 102.14 53.3158 102.543 52.3486C105.384 45.5364 107.136 40.3356 108.031 35.0701C108.915 29.8728 108.99 24.4617 108.305 17.2242C107.077 12.1899 103.272 8.51756 99.0319 7.00634C95.1499 5.62267 91.3888 6.16471 88.9014 8.54918C89.1348 11.8471 89.2021 14.493 88.9492 17.0472C88.6586 19.9827 87.9598 22.6609 86.7773 25.9934C86.7239 26.1439 86.6591 26.29 86.5834 26.4306ZM88.0056 8.21678C88.2606 11.686 88.3393 14.3814 88.0838 16.9615C87.8025 19.8035 87.1262 22.4096 85.9577 25.7026C85.9192 25.8113 85.8724 25.9169 85.8177 26.0185C79.465 37.8225 75.2123 43.9169 65.6241 53.5501C65.2447 53.9314 64.0651 54.55 63.6124 54.619C59.2155 55.2892 55.8322 58.408 55.8322 61.9315V126.827C55.8322 130.351 58.6889 133.208 62.2127 133.208H125.194C129.075 133.208 132.745 130.156 134.222 126.323C134.939 124.46 135.047 122.616 134.536 121.077C134.045 119.595 132.907 118.166 130.655 117.165C129.643 116.715 129.105 115.598 129.384 114.526C129.663 113.454 130.676 112.741 131.78 112.841C136.074 113.231 138.867 110.487 139.865 106.899C140.918 103.111 139.701 99.6003 137.192 98.4119C136.235 97.9585 135.72 96.9023 135.952 95.8691C136.185 94.8359 137.102 94.1018 138.161 94.1018C142.177 94.1018 144.785 91.4532 145.732 88.086C146.717 84.586 145.715 81.0922 143.312 79.537C142.479 78.9984 142.094 77.9811 142.361 77.0264C142.628 76.0718 143.485 75.4018 144.476 75.373C147.42 75.2877 149.322 74.1793 150.515 72.6897C151.754 71.1433 152.393 68.9735 152.338 66.5736C152.227 61.7307 149.399 57.0506 145.069 55.8188H105.435C104.678 55.8188 103.971 55.4404 103.551 54.8103C103.132 54.1803 103.054 53.3821 103.346 52.6833C106.197 45.8466 107.977 40.5761 108.889 35.2159C109.792 29.9051 109.861 24.3967 109.165 17.0803C107.877 11.7025 103.829 7.79314 99.3239 6.18724C95.0669 4.66992 90.7821 5.29586 88.0056 8.21678ZM101.136 1.10289C107.236 3.27724 112.755 8.58743 114.458 16.0117C114.489 16.1437 114.51 16.2776 114.523 16.4124C115.263 24.1012 115.225 30.1561 114.21 36.121C113.415 40.7918 112.039 45.3113 110.073 50.4211H145.365C145.621 50.4211 145.876 50.4526 146.125 50.5147C153.676 52.4026 157.584 59.9146 157.734 66.4499C157.811 69.8137 156.932 73.3124 154.728 76.064C153.542 77.5449 152.028 78.7361 150.216 79.5502C151.709 82.6655 151.823 86.3654 150.929 89.5474C149.961 92.9886 147.698 96.2772 144.203 98.082C145.845 101.231 145.964 105.112 145.065 108.346C144.118 111.751 141.9 115.063 138.464 116.874C138.969 117.66 139.368 118.498 139.659 119.377C140.647 122.353 140.32 125.505 139.259 128.262C137.193 133.627 131.847 138.606 125.194 138.606H62.2127C55.7078 138.606 50.4346 133.332 50.4346 126.827V61.9315C50.4346 55.8873 55.01 51.7172 59.89 50.0107C61.3632 49.4956 62.6959 48.8433 63.6754 47.8305C71.4859 39.7536 75.3044 34.1438 80.95 23.6733C81.9786 20.7432 82.494 18.6355 82.7124 16.4297C82.9408 14.1234 82.8588 11.5769 82.5525 7.69724C82.4903 6.90932 82.7282 6.127 83.2184 5.50703C87.7725 -0.252468 95.0475 -1.06729 101.136 1.10289ZM81.7478 24.026C76.0556 34.5884 72.193 40.2733 64.3005 48.435C63.1811 49.5925 61.697 50.3 60.177 50.8316C55.5041 52.4656 51.3041 56.3876 51.3041 61.9315V126.827C51.3041 132.852 56.1881 137.736 62.2127 137.736H125.194C131.399 137.736 136.476 133.07 138.447 127.95C139.454 125.336 139.745 122.395 138.834 119.65C138.554 118.807 138.168 118.004 137.674 117.254C137.512 117.007 137.338 116.766 137.152 116.531C137.429 116.416 137.699 116.29 137.961 116.155C141.2 114.488 143.321 111.37 144.227 108.113C145.084 105.031 144.95 101.372 143.416 98.4538C143.28 98.1952 143.133 97.9424 142.974 97.6964C143.247 97.5823 143.512 97.4589 143.77 97.3267C147.035 95.654 149.173 92.576 150.091 89.312C150.944 86.2814 150.817 82.7842 149.41 79.88C149.282 79.6168 149.144 79.3584 148.995 79.1057C149.274 79.0055 149.546 78.8964 149.811 78.7788C151.519 78.0206 152.939 76.9069 154.05 75.5204C156.098 72.9631 156.938 69.6786 156.865 66.4698C156.721 60.1891 152.967 53.1217 145.914 51.3583C145.734 51.3134 145.55 51.2907 145.365 51.2907H108.8C108.916 50.9988 109.029 50.7089 109.141 50.4211C111.158 45.2149 112.555 40.6652 113.353 35.9752C114.35 30.1098 114.393 24.1366 113.658 16.4957C113.648 16.3983 113.633 16.3016 113.611 16.2062C111.98 9.10039 106.694 4.00708 100.844 1.92199C95.0011 -0.160684 88.1608 0.658457 83.9005 6.04637C83.5463 6.49431 83.3745 7.05953 83.4194 7.62881C83.7264 11.5169 83.8142 14.1279 83.5778 16.5154C83.3487 18.8289 82.8055 21.0224 81.7478 24.026Z" fill="#B7D9FE"/>
</g>
</svg>
