<svg width="154" height="16" viewBox="0 0 154 16" fill="none" xmlns="http://www.w3.org/2000/svg">
<path d="M2 2.66675C2 2.29856 2.29848 2.00008 2.66667 2.00008H3.75955C4.79451 2.00008 5.81527 1.75911 6.74097 1.29626L7.40372 0.964891C7.77909 0.777206 8.22091 0.777205 8.59628 0.96489L9.25903 1.29626C10.1847 1.75911 11.2055 2.00008 12.2405 2.00008H13.3333C13.7015 2.00008 14 2.29856 14 2.66675V7.76552C14 9.99454 12.886 12.0761 11.0313 13.3125L8.3698 15.0869C8.14587 15.2362 7.85413 15.2362 7.6302 15.0869L4.96866 13.3125C3.11401 12.0761 2 9.99454 2 7.76552V2.66675Z" fill="#1EA787"/>
<path fill-rule="evenodd" clip-rule="evenodd" d="M10.7231 6.34136L7.92452 10.0157C7.8089 10.1658 7.63026 10.254 7.44073 10.2545C7.25225 10.2555 7.0738 10.1697 6.95694 10.0218L5.46272 8.11727C5.25472 7.85008 5.3027 7.46487 5.56989 7.25687C5.83708 7.04887 6.22229 7.09685 6.43029 7.36404L7.42848 8.6378L9.74329 5.57587C9.9496 5.3053 10.3362 5.25321 10.6067 5.45952C10.8773 5.66582 10.9294 6.05241 10.7231 6.32298L10.7231 6.34136Z" fill="white"/>
<path d="M20.2557 4.72727H21.2642L23.2812 8.12216H23.3665L25.3835 4.72727H26.392L23.7642 9.00284V12H22.8835V9.00284L20.2557 4.72727ZM28.8619 12.1136C28.3694 12.1136 27.9374 11.9964 27.5657 11.7621C27.1964 11.5277 26.9076 11.1998 26.6992 10.7784C26.4933 10.357 26.3903 9.86458 26.3903 9.30114C26.3903 8.73295 26.4933 8.23698 26.6992 7.81321C26.9076 7.38944 27.1964 7.06037 27.5657 6.82599C27.9374 6.59162 28.3694 6.47443 28.8619 6.47443C29.3543 6.47443 29.7852 6.59162 30.1545 6.82599C30.5262 7.06037 30.815 7.38944 31.021 7.81321C31.2293 8.23698 31.3335 8.73295 31.3335 9.30114C31.3335 9.86458 31.2293 10.357 31.021 10.7784C30.815 11.1998 30.5262 11.5277 30.1545 11.7621C29.7852 11.9964 29.3543 12.1136 28.8619 12.1136ZM28.8619 11.3608C29.2359 11.3608 29.5437 11.2649 29.7852 11.0732C30.0266 10.8814 30.2054 10.6293 30.3214 10.3168C30.4374 10.0043 30.4954 9.66572 30.4954 9.30114C30.4954 8.93655 30.4374 8.59683 30.3214 8.28196C30.2054 7.96709 30.0266 7.71259 29.7852 7.51847C29.5437 7.32434 29.2359 7.22727 28.8619 7.22727C28.4878 7.22727 28.18 7.32434 27.9386 7.51847C27.6971 7.71259 27.5183 7.96709 27.4023 8.28196C27.2863 8.59683 27.2283 8.93655 27.2283 9.30114C27.2283 9.66572 27.2863 10.0043 27.4023 10.3168C27.5183 10.6293 27.6971 10.8814 27.9386 11.0732C28.18 11.2649 28.4878 11.3608 28.8619 11.3608ZM36.0502 9.76989V6.54545H36.8883V12H36.0502V11.0767H35.9934C35.8656 11.3537 35.6667 11.5893 35.3968 11.7834C35.127 11.9751 34.786 12.071 34.3741 12.071C34.0332 12.071 33.7302 11.9964 33.465 11.8473C33.1999 11.6958 32.9915 11.4685 32.84 11.1655C32.6885 10.8601 32.6127 10.4754 32.6127 10.0114V6.54545H33.4508V9.95455C33.4508 10.3523 33.5621 10.6695 33.7846 10.9062C34.0095 11.143 34.296 11.2614 34.644 11.2614C34.8523 11.2614 35.0642 11.2081 35.2797 11.1016C35.4975 10.995 35.6797 10.8317 35.8265 10.6115C35.9757 10.3913 36.0502 10.1108 36.0502 9.76989ZM38.4233 12V6.54545H39.233V7.36932H39.2898C39.3892 7.09943 39.5691 6.88045 39.8295 6.71236C40.09 6.54427 40.3835 6.46023 40.7102 6.46023C40.7718 6.46023 40.8487 6.46141 40.9411 6.46378C41.0334 6.46615 41.1032 6.4697 41.1506 6.47443V7.3267C41.1222 7.3196 41.0571 7.30895 40.9553 7.29474C40.8558 7.27817 40.7505 7.26989 40.6392 7.26989C40.3741 7.26989 40.1373 7.32552 39.929 7.43679C39.723 7.54569 39.5597 7.69721 39.4389 7.89134C39.3205 8.0831 39.2614 8.30208 39.2614 8.5483V12H38.4233ZM47.0162 12.1136C46.5616 12.1136 46.1603 11.9988 45.8123 11.7692C45.4643 11.5372 45.1921 11.2105 44.9956 10.7891C44.7991 10.3653 44.7008 9.86458 44.7008 9.28693C44.7008 8.71402 44.7991 8.21686 44.9956 7.79545C45.1921 7.37405 45.4655 7.04853 45.8159 6.81889C46.1663 6.58925 46.5711 6.47443 47.0304 6.47443C47.3855 6.47443 47.666 6.53362 47.872 6.65199C48.0803 6.76799 48.2389 6.90057 48.3478 7.04972C48.4591 7.1965 48.5455 7.31723 48.6071 7.41193H48.6781V4.72727H49.5162V12H48.7065V11.1619H48.6071C48.5455 11.2614 48.4579 11.3868 48.3443 11.5384C48.2306 11.6875 48.0685 11.8213 47.8578 11.9396C47.6471 12.0556 47.3665 12.1136 47.0162 12.1136ZM47.1298 11.3608C47.466 11.3608 47.7501 11.2732 47.9821 11.098C48.2141 10.9205 48.3904 10.6754 48.5112 10.3629C48.6319 10.0481 48.6923 9.68466 48.6923 9.27273C48.6923 8.86553 48.6331 8.50923 48.5147 8.20384C48.3964 7.89607 48.2212 7.65696 47.9892 7.48651C47.7572 7.31368 47.4707 7.22727 47.1298 7.22727C46.7747 7.22727 46.4788 7.31842 46.242 7.50071C46.0076 7.68063 45.8313 7.92566 45.7129 8.2358C45.5969 8.54356 45.5389 8.8892 45.5389 9.27273C45.5389 9.66098 45.5981 10.0137 45.7164 10.331C45.8372 10.6458 46.0147 10.8968 46.2491 11.0838C46.4859 11.2685 46.7794 11.3608 47.1298 11.3608ZM52.7725 12.1278C52.4269 12.1278 52.1132 12.0627 51.8315 11.9325C51.5498 11.8 51.3261 11.6094 51.1603 11.3608C50.9946 11.1098 50.9118 10.8068 50.9118 10.4517C50.9118 10.1392 50.9733 9.88589 51.0964 9.69176C51.2195 9.49527 51.3841 9.34138 51.59 9.23011C51.796 9.11884 52.0233 9.03598 52.2718 8.98153C52.5228 8.92472 52.7749 8.87973 53.0282 8.84659C53.3597 8.80398 53.6284 8.77202 53.8343 8.75071C54.0427 8.72704 54.1942 8.68797 54.2889 8.63352C54.3859 8.57907 54.4345 8.48437 54.4345 8.34943V8.32102C54.4345 7.97064 54.3386 7.69839 54.1468 7.50426C53.9574 7.31013 53.6698 7.21307 53.2839 7.21307C52.8838 7.21307 52.5701 7.30066 52.3429 7.47585C52.1156 7.65104 51.9558 7.83807 51.8635 8.03693L51.068 7.75284C51.21 7.4214 51.3994 7.16335 51.6362 6.97869C51.8753 6.79167 52.1357 6.66146 52.4174 6.58807C52.7015 6.51231 52.9809 6.47443 53.2555 6.47443C53.4307 6.47443 53.6319 6.49574 53.8592 6.53835C54.0888 6.5786 54.3102 6.66264 54.5233 6.79048C54.7387 6.91832 54.9174 7.11127 55.0595 7.36932C55.2015 7.62737 55.2725 7.97301 55.2725 8.40625V12H54.4345V11.2614H54.3919C54.335 11.3797 54.2404 11.5064 54.1078 11.6413C53.9752 11.7763 53.7988 11.8911 53.5787 11.9858C53.3585 12.0805 53.0898 12.1278 52.7725 12.1278ZM52.9004 11.375C53.2318 11.375 53.5112 11.3099 53.7385 11.1797C53.9681 11.0495 54.1409 10.8814 54.2569 10.6754C54.3753 10.4695 54.4345 10.2528 54.4345 10.0256V9.25852C54.399 9.30114 54.3208 9.3402 54.2001 9.37571C54.0817 9.40885 53.9444 9.43845 53.7882 9.46449C53.6343 9.48816 53.484 9.50947 53.3372 9.52841C53.1928 9.54498 53.0756 9.55919 52.9856 9.57102C52.7678 9.59943 52.5642 9.6456 52.3748 9.70952C52.1878 9.77107 52.0363 9.86458 51.9203 9.99006C51.8066 10.1132 51.7498 10.2812 51.7498 10.4943C51.7498 10.7855 51.8575 11.0057 52.073 11.1548C52.2908 11.3016 52.5666 11.375 52.9004 11.375ZM59.1744 6.54545V7.25568H56.3477V6.54545H59.1744ZM57.1715 5.23864H58.0096V10.4375C58.0096 10.6742 58.0439 10.8518 58.1126 10.9702C58.1836 11.0862 58.2736 11.1643 58.3825 11.2045C58.4937 11.2424 58.6109 11.2614 58.734 11.2614C58.8263 11.2614 58.9021 11.2566 58.9613 11.2472C59.0205 11.2353 59.0678 11.2259 59.1033 11.2188L59.2738 11.9716C59.217 11.9929 59.1377 12.0142 59.0359 12.0355C58.9341 12.0592 58.805 12.071 58.6488 12.071C58.4121 12.071 58.18 12.0201 57.9528 11.9183C57.7279 11.8165 57.5408 11.6615 57.3917 11.4531C57.2449 11.2448 57.1715 10.982 57.1715 10.6648V5.23864ZM62.0401 12.1278C61.6945 12.1278 61.3808 12.0627 61.0991 11.9325C60.8174 11.8 60.5936 11.6094 60.4279 11.3608C60.2622 11.1098 60.1793 10.8068 60.1793 10.4517C60.1793 10.1392 60.2409 9.88589 60.364 9.69176C60.4871 9.49527 60.6516 9.34138 60.8576 9.23011C61.0636 9.11884 61.2908 9.03598 61.5394 8.98153C61.7904 8.92472 62.0425 8.87973 62.2958 8.84659C62.6272 8.80398 62.896 8.77202 63.1019 8.75071C63.3103 8.72704 63.4618 8.68797 63.5565 8.63352C63.6535 8.57907 63.7021 8.48437 63.7021 8.34943V8.32102C63.7021 7.97064 63.6062 7.69839 63.4144 7.50426C63.225 7.31013 62.9374 7.21307 62.5515 7.21307C62.1514 7.21307 61.8377 7.30066 61.6104 7.47585C61.3832 7.65104 61.2234 7.83807 61.131 8.03693L60.3356 7.75284C60.4776 7.4214 60.667 7.16335 60.9038 6.97869C61.1429 6.79167 61.4033 6.66146 61.685 6.58807C61.9691 6.51231 62.2485 6.47443 62.5231 6.47443C62.6983 6.47443 62.8995 6.49574 63.1268 6.53835C63.3564 6.5786 63.5778 6.66264 63.7908 6.79048C64.0063 6.91832 64.185 7.11127 64.3271 7.36932C64.4691 7.62737 64.5401 7.97301 64.5401 8.40625V12H63.7021V11.2614H63.6594C63.6026 11.3797 63.5079 11.5064 63.3754 11.6413C63.2428 11.7763 63.0664 11.8911 62.8462 11.9858C62.6261 12.0805 62.3574 12.1278 62.0401 12.1278ZM62.168 11.375C62.4994 11.375 62.7788 11.3099 63.006 11.1797C63.2357 11.0495 63.4085 10.8814 63.5245 10.6754C63.6429 10.4695 63.7021 10.2528 63.7021 10.0256V9.25852C63.6665 9.30114 63.5884 9.3402 63.4677 9.37571C63.3493 9.40885 63.212 9.43845 63.0558 9.46449C62.9019 9.48816 62.7515 9.50947 62.6048 9.52841C62.4603 9.54498 62.3432 9.55919 62.2532 9.57102C62.0354 9.59943 61.8318 9.6456 61.6424 9.70952C61.4554 9.77107 61.3039 9.86458 61.1879 9.99006C61.0742 10.1132 61.0174 10.2812 61.0174 10.4943C61.0174 10.7855 61.1251 11.0057 61.3406 11.1548C61.5584 11.3016 61.8342 11.375 62.168 11.375ZM68.8823 12V6.54545H69.7203V12H68.8823ZM69.3084 5.63636C69.1451 5.63636 69.0042 5.58073 68.8858 5.46946C68.7698 5.35819 68.7118 5.22443 68.7118 5.06818C68.7118 4.91193 68.7698 4.77817 68.8858 4.6669C69.0042 4.55563 69.1451 4.5 69.3084 4.5C69.4718 4.5 69.6114 4.55563 69.7275 4.6669C69.8458 4.77817 69.905 4.91193 69.905 5.06818C69.905 5.22443 69.8458 5.35819 69.7275 5.46946C69.6114 5.58073 69.4718 5.63636 69.3084 5.63636ZM75.119 7.76705L74.3661 7.98011C74.3188 7.85464 74.2489 7.73272 74.1566 7.61435C74.0666 7.49361 73.9435 7.39418 73.7873 7.31605C73.631 7.23793 73.431 7.19886 73.1871 7.19886C72.8533 7.19886 72.5752 7.2758 72.3526 7.42969C72.1325 7.5812 72.0224 7.77415 72.0224 8.00852C72.0224 8.21686 72.0981 8.38139 72.2496 8.50213C72.4012 8.62287 72.6379 8.72348 72.9599 8.80398L73.7695 9.00284C74.2572 9.12121 74.6206 9.30232 74.8597 9.54616C75.0988 9.78764 75.2184 10.099 75.2184 10.4801C75.2184 10.7926 75.1284 11.072 74.9485 11.3182C74.771 11.5644 74.5224 11.7585 74.2028 11.9006C73.8832 12.0426 73.5115 12.1136 73.0877 12.1136C72.5314 12.1136 72.0709 11.9929 71.7063 11.7514C71.3417 11.5099 71.1109 11.1572 71.0138 10.6932L71.8093 10.4943C71.8851 10.7879 72.0283 11.008 72.239 11.1548C72.4521 11.3016 72.7302 11.375 73.0735 11.375C73.4641 11.375 73.7743 11.2921 74.0039 11.1264C74.2359 10.9583 74.3519 10.7571 74.3519 10.5227C74.3519 10.3333 74.2856 10.1747 74.1531 10.0469C74.0205 9.91667 73.8169 9.8196 73.5423 9.75568L72.6332 9.54261C72.1336 9.42424 71.7667 9.24077 71.5323 8.99219C71.3003 8.74124 71.1843 8.42756 71.1843 8.05114C71.1843 7.74337 71.2707 7.47112 71.4435 7.23438C71.6187 6.99763 71.8567 6.81179 72.1573 6.67685C72.4603 6.5419 72.8036 6.47443 73.1871 6.47443C73.7269 6.47443 74.1507 6.5928 74.4585 6.82955C74.7686 7.06629 74.9888 7.37879 75.119 7.76705ZM83.1561 7.76705L82.4032 7.98011C82.3559 7.85464 82.286 7.73272 82.1937 7.61435C82.1038 7.49361 81.9806 7.39418 81.8244 7.31605C81.6681 7.23793 81.4681 7.19886 81.2243 7.19886C80.8904 7.19886 80.6123 7.2758 80.3897 7.42969C80.1696 7.5812 80.0595 7.77415 80.0595 8.00852C80.0595 8.21686 80.1352 8.38139 80.2868 8.50213C80.4383 8.62287 80.675 8.72348 80.997 8.80398L81.8066 9.00284C82.2943 9.12121 82.6577 9.30232 82.8968 9.54616C83.1359 9.78764 83.2555 10.099 83.2555 10.4801C83.2555 10.7926 83.1655 11.072 82.9856 11.3182C82.8081 11.5644 82.5595 11.7585 82.2399 11.9006C81.9203 12.0426 81.5486 12.1136 81.1248 12.1136C80.5685 12.1136 80.108 11.9929 79.7434 11.7514C79.3788 11.5099 79.148 11.1572 79.051 10.6932L79.8464 10.4943C79.9222 10.7879 80.0654 11.008 80.2761 11.1548C80.4892 11.3016 80.7673 11.375 81.1106 11.375C81.5012 11.375 81.8114 11.2921 82.041 11.1264C82.273 10.9583 82.389 10.7571 82.389 10.5227C82.389 10.3333 82.3227 10.1747 82.1902 10.0469C82.0576 9.91667 81.854 9.8196 81.5794 9.75568L80.6703 9.54261C80.1708 9.42424 79.8038 9.24077 79.5694 8.99219C79.3374 8.74124 79.2214 8.42756 79.2214 8.05114C79.2214 7.74337 79.3078 7.47112 79.4806 7.23438C79.6558 6.99763 79.8938 6.81179 80.1944 6.67685C80.4975 6.5419 80.8407 6.47443 81.2243 6.47443C81.764 6.47443 82.1878 6.5928 82.4956 6.82955C82.8057 7.06629 83.0259 7.37879 83.1561 7.76705ZM86.1222 12.1278C85.7765 12.1278 85.4628 12.0627 85.1811 11.9325C84.8994 11.8 84.6757 11.6094 84.5099 11.3608C84.3442 11.1098 84.2614 10.8068 84.2614 10.4517C84.2614 10.1392 84.3229 9.88589 84.446 9.69176C84.5691 9.49527 84.7337 9.34138 84.9396 9.23011C85.1456 9.11884 85.3729 9.03598 85.6214 8.98153C85.8724 8.92472 86.1245 8.87973 86.3778 8.84659C86.7093 8.80398 86.978 8.77202 87.1839 8.75071C87.3923 8.72704 87.5438 8.68797 87.6385 8.63352C87.7356 8.57907 87.7841 8.48437 87.7841 8.34943V8.32102C87.7841 7.97064 87.6882 7.69839 87.4964 7.50426C87.3071 7.31013 87.0194 7.21307 86.6335 7.21307C86.2334 7.21307 85.9197 7.30066 85.6925 7.47585C85.4652 7.65104 85.3054 7.83807 85.2131 8.03693L84.4176 7.75284C84.5597 7.4214 84.7491 7.16335 84.9858 6.97869C85.2249 6.79167 85.4853 6.66146 85.767 6.58807C86.0511 6.51231 86.3305 6.47443 86.6051 6.47443C86.7803 6.47443 86.9815 6.49574 87.2088 6.53835C87.4384 6.5786 87.6598 6.66264 87.8729 6.79048C88.0883 6.91832 88.267 7.11127 88.4091 7.36932C88.5511 7.62737 88.6222 7.97301 88.6222 8.40625V12H87.7841V11.2614H87.7415C87.6847 11.3797 87.59 11.5064 87.4574 11.6413C87.3248 11.7763 87.1484 11.8911 86.9283 11.9858C86.7081 12.0805 86.4394 12.1278 86.1222 12.1278ZM86.25 11.375C86.5814 11.375 86.8608 11.3099 87.0881 11.1797C87.3177 11.0495 87.4905 10.8814 87.6065 10.6754C87.7249 10.4695 87.7841 10.2528 87.7841 10.0256V9.25852C87.7486 9.30114 87.6705 9.3402 87.5497 9.37571C87.4313 9.40885 87.294 9.43845 87.1378 9.46449C86.9839 9.48816 86.8336 9.50947 86.6868 9.52841C86.5424 9.54498 86.4252 9.55919 86.3352 9.57102C86.1174 9.59943 85.9138 9.6456 85.7244 9.70952C85.5374 9.77107 85.3859 9.86458 85.2699 9.99006C85.1563 10.1132 85.0994 10.2812 85.0994 10.4943C85.0994 10.7855 85.2071 11.0057 85.4226 11.1548C85.6404 11.3016 85.9162 11.375 86.25 11.375ZM92.5808 6.54545V7.25568H89.6404V6.54545H92.5808ZM90.5211 12V5.79261C90.5211 5.48011 90.5945 5.2197 90.7413 5.01136C90.8881 4.80303 91.0787 4.64678 91.313 4.54261C91.5474 4.43845 91.7948 4.38636 92.0552 4.38636C92.2612 4.38636 92.4293 4.40294 92.5595 4.43608C92.6897 4.46922 92.7868 4.5 92.8507 4.52841L92.6092 5.25284C92.5666 5.23864 92.5074 5.22088 92.4316 5.19957C92.3583 5.17827 92.2612 5.16761 92.1404 5.16761C91.8635 5.16761 91.6634 5.23745 91.5403 5.37713C91.4196 5.51681 91.3592 5.72159 91.3592 5.99148V12H90.5211ZM95.8176 12.1136C95.2921 12.1136 94.8387 11.9976 94.4576 11.7656C94.0788 11.5312 93.7864 11.2045 93.5804 10.7855C93.3768 10.3641 93.275 9.87405 93.275 9.31534C93.275 8.75663 93.3768 8.2642 93.5804 7.83807C93.7864 7.40956 94.0729 7.07576 94.4398 6.83665C94.8091 6.59517 95.24 6.47443 95.7324 6.47443C96.0165 6.47443 96.2971 6.52178 96.574 6.61648C96.851 6.71117 97.1032 6.86506 97.3304 7.07812C97.5577 7.28883 97.7388 7.56818 97.8738 7.91619C98.0087 8.2642 98.0762 8.69271 98.0762 9.2017V9.55682H93.8716V8.83239H97.2239C97.2239 8.52462 97.1623 8.25 97.0392 8.00852C96.9185 7.76705 96.7457 7.57647 96.5208 7.43679C96.2982 7.29711 96.0355 7.22727 95.7324 7.22727C95.3986 7.22727 95.1098 7.31013 94.8659 7.47585C94.6245 7.6392 94.4386 7.85227 94.3084 8.11506C94.1782 8.37784 94.1131 8.65956 94.1131 8.96023V9.44318C94.1131 9.85511 94.1841 10.2043 94.3262 10.4908C94.4706 10.7749 94.6706 10.9915 94.9263 11.1406C95.182 11.2874 95.4791 11.3608 95.8176 11.3608C96.0378 11.3608 96.2367 11.33 96.4142 11.2685C96.5942 11.2045 96.7492 11.1098 96.8794 10.9844C97.0096 10.8565 97.1103 10.6979 97.1813 10.5085L97.9909 10.7358C97.9057 11.0104 97.7625 11.2519 97.5613 11.4602C97.36 11.6662 97.1114 11.8272 96.8155 11.9432C96.5196 12.0568 96.187 12.1136 95.8176 12.1136ZM103.769 12.1278C103.423 12.1278 103.109 12.0627 102.828 11.9325C102.546 11.8 102.322 11.6094 102.156 11.3608C101.991 11.1098 101.908 10.8068 101.908 10.4517C101.908 10.1392 101.969 9.88589 102.093 9.69176C102.216 9.49527 102.38 9.34138 102.586 9.23011C102.792 9.11884 103.019 9.03598 103.268 8.98153C103.519 8.92472 103.771 8.87973 104.024 8.84659C104.356 8.80398 104.624 8.77202 104.83 8.75071C105.039 8.72704 105.19 8.68797 105.285 8.63352C105.382 8.57907 105.431 8.48437 105.431 8.34943V8.32102C105.431 7.97064 105.335 7.69839 105.143 7.50426C104.954 7.31013 104.666 7.21307 104.28 7.21307C103.88 7.21307 103.566 7.30066 103.339 7.47585C103.112 7.65104 102.952 7.83807 102.86 8.03693L102.064 7.75284C102.206 7.4214 102.396 7.16335 102.632 6.97869C102.871 6.79167 103.132 6.66146 103.414 6.58807C103.698 6.51231 103.977 6.47443 104.252 6.47443C104.427 6.47443 104.628 6.49574 104.855 6.53835C105.085 6.5786 105.306 6.66264 105.519 6.79048C105.735 6.91832 105.914 7.11127 106.056 7.36932C106.198 7.62737 106.269 7.97301 106.269 8.40625V12H105.431V11.2614H105.388C105.331 11.3797 105.236 11.5064 105.104 11.6413C104.971 11.7763 104.795 11.8911 104.575 11.9858C104.355 12.0805 104.086 12.1278 103.769 12.1278ZM103.896 11.375C104.228 11.375 104.507 11.3099 104.735 11.1797C104.964 11.0495 105.137 10.8814 105.253 10.6754C105.371 10.4695 105.431 10.2528 105.431 10.0256V9.25852C105.395 9.30114 105.317 9.3402 105.196 9.37571C105.078 9.40885 104.941 9.43845 104.784 9.46449C104.63 9.48816 104.48 9.50947 104.333 9.52841C104.189 9.54498 104.072 9.55919 103.982 9.57102C103.764 9.59943 103.56 9.6456 103.371 9.70952C103.184 9.77107 103.032 9.86458 102.916 9.99006C102.803 10.1132 102.746 10.2812 102.746 10.4943C102.746 10.7855 102.854 11.0057 103.069 11.1548C103.287 11.3016 103.563 11.375 103.896 11.375ZM108.636 8.71875V12H107.798V6.54545H108.608V7.39773H108.679C108.807 7.12074 109.001 6.8982 109.261 6.73011C109.522 6.55966 109.858 6.47443 110.27 6.47443C110.639 6.47443 110.962 6.55019 111.239 6.7017C111.516 6.85085 111.732 7.07812 111.886 7.38352C112.04 7.68655 112.116 8.07008 112.116 8.53409V12H111.278V8.59091C111.278 8.16241 111.167 7.8286 110.945 7.58949C110.722 7.34801 110.417 7.22727 110.028 7.22727C109.761 7.22727 109.522 7.28527 109.311 7.40128C109.103 7.51728 108.938 7.68655 108.817 7.90909C108.697 8.13163 108.636 8.40152 108.636 8.71875ZM115.708 12.1136C115.253 12.1136 114.852 11.9988 114.504 11.7692C114.156 11.5372 113.883 11.2105 113.687 10.7891C113.49 10.3653 113.392 9.86458 113.392 9.28693C113.392 8.71402 113.49 8.21686 113.687 7.79545C113.883 7.37405 114.157 7.04853 114.507 6.81889C114.858 6.58925 115.262 6.47443 115.722 6.47443C116.077 6.47443 116.357 6.53362 116.563 6.65199C116.772 6.76799 116.93 6.90057 117.039 7.04972C117.151 7.1965 117.237 7.31723 117.298 7.41193H117.369V4.72727H118.208V12H117.398V11.1619H117.298C117.237 11.2614 117.149 11.3868 117.036 11.5384C116.922 11.6875 116.76 11.8213 116.549 11.9396C116.338 12.0556 116.058 12.1136 115.708 12.1136ZM115.821 11.3608C116.157 11.3608 116.441 11.2732 116.673 11.098C116.905 10.9205 117.082 10.6754 117.203 10.3629C117.323 10.0481 117.384 9.68466 117.384 9.27273C117.384 8.86553 117.325 8.50923 117.206 8.20384C117.088 7.89607 116.913 7.65696 116.681 7.48651C116.449 7.31368 116.162 7.22727 115.821 7.22727C115.466 7.22727 115.17 7.31842 114.933 7.50071C114.699 7.68063 114.523 7.92566 114.404 8.2358C114.288 8.54356 114.23 8.8892 114.23 9.27273C114.23 9.66098 114.289 10.0137 114.408 10.331C114.529 10.6458 114.706 10.8968 114.941 11.0838C115.177 11.2685 115.471 11.3608 115.821 11.3608ZM126.535 7.76705L125.782 7.98011C125.735 7.85464 125.665 7.73272 125.573 7.61435C125.483 7.49361 125.36 7.39418 125.203 7.31605C125.047 7.23793 124.847 7.19886 124.603 7.19886C124.269 7.19886 123.991 7.2758 123.769 7.42969C123.548 7.5812 123.438 7.77415 123.438 8.00852C123.438 8.21686 123.514 8.38139 123.666 8.50213C123.817 8.62287 124.054 8.72348 124.376 8.80398L125.186 9.00284C125.673 9.12121 126.037 9.30232 126.276 9.54616C126.515 9.78764 126.634 10.099 126.634 10.4801C126.634 10.7926 126.544 11.072 126.365 11.3182C126.187 11.5644 125.938 11.7585 125.619 11.9006C125.299 12.0426 124.927 12.1136 124.504 12.1136C123.947 12.1136 123.487 11.9929 123.122 11.7514C122.758 11.5099 122.527 11.1572 122.43 10.6932L123.225 10.4943C123.301 10.7879 123.444 11.008 123.655 11.1548C123.868 11.3016 124.146 11.375 124.49 11.375C124.88 11.375 125.19 11.2921 125.42 11.1264C125.652 10.9583 125.768 10.7571 125.768 10.5227C125.768 10.3333 125.702 10.1747 125.569 10.0469C125.436 9.91667 125.233 9.8196 124.958 9.75568L124.049 9.54261C123.55 9.42424 123.183 9.24077 122.948 8.99219C122.716 8.74124 122.6 8.42756 122.6 8.05114C122.6 7.74337 122.687 7.47112 122.86 7.23438C123.035 6.99763 123.273 6.81179 123.573 6.67685C123.876 6.5419 124.22 6.47443 124.603 6.47443C125.143 6.47443 125.567 6.5928 125.874 6.82955C126.185 7.06629 126.405 7.37879 126.535 7.76705ZM130.183 12.1136C129.657 12.1136 129.204 11.9976 128.823 11.7656C128.444 11.5312 128.152 11.2045 127.946 10.7855C127.742 10.3641 127.64 9.87405 127.64 9.31534C127.64 8.75663 127.742 8.2642 127.946 7.83807C128.152 7.40956 128.438 7.07576 128.805 6.83665C129.174 6.59517 129.605 6.47443 130.098 6.47443C130.382 6.47443 130.662 6.52178 130.939 6.61648C131.216 6.71117 131.468 6.86506 131.696 7.07812C131.923 7.28883 132.104 7.56818 132.239 7.91619C132.374 8.2642 132.441 8.69271 132.441 9.2017V9.55682H128.237V8.83239H131.589C131.589 8.52462 131.528 8.25 131.404 8.00852C131.284 7.76705 131.111 7.57647 130.886 7.43679C130.663 7.29711 130.401 7.22727 130.098 7.22727C129.764 7.22727 129.475 7.31013 129.231 7.47585C128.99 7.6392 128.804 7.85227 128.674 8.11506C128.543 8.37784 128.478 8.65956 128.478 8.96023V9.44318C128.478 9.85511 128.549 10.2043 128.691 10.4908C128.836 10.7749 129.036 10.9915 129.292 11.1406C129.547 11.2874 129.844 11.3608 130.183 11.3608C130.403 11.3608 130.602 11.33 130.779 11.2685C130.959 11.2045 131.114 11.1098 131.245 10.9844C131.375 10.8565 131.475 10.6979 131.547 10.5085L132.356 10.7358C132.271 11.0104 132.128 11.2519 131.926 11.4602C131.725 11.6662 131.477 11.8272 131.181 11.9432C130.885 12.0568 130.552 12.1136 130.183 12.1136ZM135.932 12.1136C135.421 12.1136 134.98 11.9929 134.611 11.7514C134.242 11.5099 133.958 11.1773 133.759 10.7536C133.56 10.3298 133.461 9.84564 133.461 9.30114C133.461 8.74716 133.562 8.25829 133.766 7.83452C133.972 7.40838 134.258 7.07576 134.625 6.83665C134.995 6.59517 135.426 6.47443 135.918 6.47443C136.301 6.47443 136.647 6.54545 136.955 6.6875C137.263 6.82955 137.515 7.02841 137.711 7.28409C137.908 7.53977 138.03 7.83807 138.077 8.17898H137.239C137.175 7.9304 137.033 7.71023 136.813 7.51847C136.595 7.32434 136.301 7.22727 135.932 7.22727C135.605 7.22727 135.319 7.3125 135.073 7.48295C134.829 7.65104 134.638 7.88897 134.501 8.19673C134.366 8.50213 134.299 8.8608 134.299 9.27273C134.299 9.69413 134.365 10.0611 134.498 10.3736C134.632 10.6861 134.822 10.9287 135.066 11.1016C135.312 11.2744 135.601 11.3608 135.932 11.3608C136.15 11.3608 136.348 11.3229 136.525 11.2472C136.703 11.1714 136.853 11.0625 136.976 10.9205C137.099 10.7784 137.187 10.608 137.239 10.4091H138.077C138.03 10.7311 137.913 11.0211 137.725 11.2791C137.541 11.5348 137.296 11.7384 136.99 11.8899C136.687 12.0391 136.335 12.1136 135.932 12.1136ZM142.74 9.76989V6.54545H143.578V12H142.74V11.0767H142.683C142.555 11.3537 142.356 11.5893 142.086 11.7834C141.816 11.9751 141.475 12.071 141.064 12.071C140.723 12.071 140.42 11.9964 140.154 11.8473C139.889 11.6958 139.681 11.4685 139.529 11.1655C139.378 10.8601 139.302 10.4754 139.302 10.0114V6.54545H140.14V9.95455C140.14 10.3523 140.252 10.6695 140.474 10.9062C140.699 11.143 140.985 11.2614 141.333 11.2614C141.542 11.2614 141.754 11.2081 141.969 11.1016C142.187 10.995 142.369 10.8317 142.516 10.6115C142.665 10.3913 142.74 10.1108 142.74 9.76989ZM145.113 12V6.54545H145.922V7.36932H145.979C146.079 7.09943 146.259 6.88045 146.519 6.71236C146.779 6.54427 147.073 6.46023 147.4 6.46023C147.461 6.46023 147.538 6.46141 147.631 6.46378C147.723 6.46615 147.793 6.4697 147.84 6.47443V7.3267C147.812 7.3196 147.747 7.30895 147.645 7.29474C147.545 7.27817 147.44 7.26989 147.329 7.26989C147.064 7.26989 146.827 7.32552 146.618 7.43679C146.412 7.54569 146.249 7.69721 146.128 7.89134C146.01 8.0831 145.951 8.30208 145.951 8.5483V12H145.113ZM150.954 12.1136C150.429 12.1136 149.975 11.9976 149.594 11.7656C149.215 11.5312 148.923 11.2045 148.717 10.7855C148.514 10.3641 148.412 9.87405 148.412 9.31534C148.412 8.75663 148.514 8.2642 148.717 7.83807C148.923 7.40956 149.21 7.07576 149.577 6.83665C149.946 6.59517 150.377 6.47443 150.869 6.47443C151.153 6.47443 151.434 6.52178 151.711 6.61648C151.988 6.71117 152.24 6.86506 152.467 7.07812C152.694 7.28883 152.876 7.56818 153.01 7.91619C153.145 8.2642 153.213 8.69271 153.213 9.2017V9.55682H149.008V8.83239H152.361C152.361 8.52462 152.299 8.25 152.176 8.00852C152.055 7.76705 151.882 7.57647 151.657 7.43679C151.435 7.29711 151.172 7.22727 150.869 7.22727C150.535 7.22727 150.247 7.31013 150.003 7.47585C149.761 7.6392 149.575 7.85227 149.445 8.11506C149.315 8.37784 149.25 8.65956 149.25 8.96023V9.44318C149.25 9.85511 149.321 10.2043 149.463 10.4908C149.607 10.7749 149.807 10.9915 150.063 11.1406C150.319 11.2874 150.616 11.3608 150.954 11.3608C151.175 11.3608 151.373 11.33 151.551 11.2685C151.731 11.2045 151.886 11.1098 152.016 10.9844C152.146 10.8565 152.247 10.6979 152.318 10.5085L153.128 10.7358C153.042 11.0104 152.899 11.2519 152.698 11.4602C152.497 11.6662 152.248 11.8272 151.952 11.9432C151.656 12.0568 151.324 12.1136 150.954 12.1136Z" fill="white"/>
</svg>
