<svg width="106" height="211" viewBox="0 0 106 211" fill="none" xmlns="http://www.w3.org/2000/svg">
<path id="Union" fill-rule="evenodd" clip-rule="evenodd" d="M88.4276 13.9751C89.2388 13.1639 90.5539 13.1639 91.3651 13.9751C92.1763 14.7863 92.1763 16.1014 91.3651 16.9126L87.438 20.8397L91.3651 24.7668C92.1763 25.5779 92.1763 26.8931 91.3651 27.7043C90.5539 28.5154 89.2388 28.5154 88.4276 27.7043L84.5005 23.7772L80.5734 27.7043C79.7622 28.5154 78.4471 28.5154 77.6359 27.7043C76.8247 26.8931 76.8248 25.5779 77.6359 24.7668L81.563 20.8397L77.6359 16.9126C76.8248 16.1014 76.8248 14.7863 77.6359 13.9751C78.4471 13.1639 79.7622 13.1639 80.5734 13.9751L84.5005 17.9022L88.4276 13.9751ZM63.6671 20.8397C63.6671 9.31884 72.9797 0.00634766 84.5005 0.00634766C96.0214 0.00634766 105.334 9.31884 105.334 20.8397C105.334 32.3605 96.0214 41.673 84.5005 41.673C72.9797 41.673 63.6671 32.3605 63.6671 20.8397ZM67.8338 20.8397C67.8338 30.0272 75.313 37.5063 84.5005 37.5063C93.688 37.5063 101.167 30.0272 101.167 20.8397C101.167 11.6522 93.688 4.17301 84.5005 4.17301C75.313 4.17301 67.8338 11.6522 67.8338 20.8397ZM1.45235 24.6773C17.7634 5.72203 42.4136 -1.73459 64.8374 3.77816C63.501 5.5874 62.3894 7.57271 61.5437 9.69289C41.9326 5.53336 20.6718 12.2922 6.37181 28.9105C5.20285 30.269 3.15396 30.4226 1.79549 29.2537C0.437018 28.0847 0.283389 26.0358 1.45235 24.6773ZM50.188 18.6419C53.3858 18.6756 56.5511 19.1054 59.6703 19.9141C59.7074 22.3777 60.0808 24.7599 60.7465 27.0167C57.2033 25.7928 53.6508 25.1688 50.1195 25.1315C39.744 25.0219 28.8701 29.9698 18.2622 41.0451C17.0225 42.3394 14.9684 42.3836 13.6741 41.144C12.3798 39.9043 12.3355 37.8502 13.5752 36.5559C25.0335 24.5927 37.5237 18.5081 50.188 18.6419ZM30.0816 52.8989C36.7018 45.0476 43.4261 41.5527 49.6844 41.519C55.9232 41.4855 62.6274 44.8881 69.2325 52.8751C70.3746 54.2562 72.4201 54.4499 73.8012 53.3078C75.1823 52.1656 75.376 50.1201 74.2339 48.739C66.8853 39.853 58.5001 34.9815 49.6495 35.0291C40.8185 35.0765 32.4534 40.0181 25.12 48.7152C23.9647 50.0854 24.1388 52.1326 25.509 53.2879C26.8791 54.4432 28.9263 54.269 30.0816 52.8989ZM59.0776 65.4109C59.0776 68.7391 57.3499 71.6638 54.7424 73.3369L60.4547 94.5775L93.1673 208.006C93.4539 208.994 92.9895 210.769 91.5787 210.969C90.1679 211.17 88.9539 209.994 88.6673 209.006L84.4943 195.726H15.6219L11.6671 209.006C11.3954 209.996 10.196 211.163 8.78218 210.973C7.36838 210.783 6.89543 208.996 7.16706 208.006L34.8877 106.205L44.4457 73.2413C41.9199 71.5538 40.2564 68.6766 40.2564 65.4109C40.2564 60.2136 44.4697 56.0004 49.667 56.0004C54.8643 56.0004 59.0776 60.2136 59.0776 65.4109ZM49.667 74.8215C49.5472 74.8215 49.4279 74.8192 49.3092 74.8148L41.4463 101.932L55.0475 94.1974L49.8362 74.82C49.7799 74.821 49.7235 74.8215 49.667 74.8215ZM41.709 106.484L61.5455 116.664L56.199 98.244L41.709 106.484ZM82.8909 190.202L26.9297 166.656L72.4413 154.202L82.8909 190.202ZM70.7336 148.318L34.9844 135.222L63.6061 123.763L70.7336 148.318ZM60.6654 120.737L33.1875 131.738L39.2273 109.735L60.6654 120.737ZM31.4554 138.048L68.1003 151.472L24.4946 163.405L31.4554 138.048ZM22.8989 169.217L77.2296 192.078H16.6236L22.8989 169.217Z" fill="#B7D9FE"/>
</svg>
