<svg width="38" height="38" viewBox="0 0 38 38" fill="none" xmlns="http://www.w3.org/2000/svg">
<g id="Frame 20373">
<path id="Vector" d="M9.17355 9.16282L0.676287 17.7034C0.676287 17.7034 0.0113093 18.2869 0.000144884 18.7837C-0.0107787 19.2698 0.59962 19.8767 0.59962 19.8767L9.71022 28.9383L18.4965 38V34.0347V30.0567L16.0097 27.3116C14.0291 25.3416 13.2625 24.5028 13.2625 24.2868C13.2625 24.0707 14.0164 23.2446 15.9202 21.3255C17.3769 19.864 18.4965 18.6058 18.4965 18.6058V15.2887V13.6746V12.0605L14.4508 16.4452C10.5919 20.3342 10.0424 20.8426 9.69744 20.8426C9.46744 20.8426 9.18633 20.7282 9.04577 20.5884C8.44521 19.9911 8.45799 19.9784 13.7736 14.6786L18.4965 9.70932V5.17213V0.634953V0C18.1531 0.23008 17.9793 0.362793 17.6708 0.634953L9.17355 9.16282Z" fill="#159640"/>
<path id="Vector_2" d="M19.5039 9.55312C19.5039 17.7751 19.5039 18.7774 19.5039 18.7774C19.6318 18.9551 21.102 20.2492 22.5082 21.6703C23.9145 23.0914 25.1546 24.3983 25.2569 24.5886C25.3847 24.817 25.4487 25.2991 25.4487 26.0731C25.4487 27.4434 25.2569 27.9256 24.2981 28.8772C23.4159 29.7527 22.5338 30.0826 20.8207 30.1714L19.5039 30.2348V34.1174V38L26.1518 31.3387C31.892 25.591 32.7997 24.6267 32.7997 24.2968C32.7997 23.9796 32.1605 23.2944 28.0055 19.1581C22.879 14.0574 22.879 14.0574 23.5054 13.4738C24.1191 12.9028 24.1191 12.8901 29.2201 17.9527C33.375 22.0637 34.0781 22.7108 34.3977 22.7108C34.7173 22.7108 35.037 22.4443 36.3282 21.1501C38.0157 19.4626 38.1563 19.1834 37.9007 18.2191C37.7856 17.7624 36.6989 16.6458 29.1817 9.15978L20.5906 0.633335C20.1905 0.339767 19.9478 0.208469 19.5039 0V0.633335V9.55312Z" fill="#154096"/>
</g>
</svg>
