<svg width="14" height="14" viewBox="0 0 14 14" fill="none" xmlns="http://www.w3.org/2000/svg">
<path d="M12.9618 10.3769L11.5818 8.96361C11.2849 8.68144 10.9105 8.49449 10.5066 8.42677C10.1027 8.35906 9.68775 8.41368 9.31511 8.58361L8.71511 7.98361C9.42215 7.03889 9.74505 5.86139 9.61881 4.68817C9.49257 3.51494 8.92656 2.43309 8.03473 1.66041C7.1429 0.887727 5.99147 0.481581 4.81222 0.523733C3.63298 0.565885 2.51348 1.0532 1.67909 1.88759C0.844708 2.72198 0.357389 3.84147 0.315237 5.02072C0.273085 6.19997 0.679231 7.3514 1.45191 8.24323C2.2246 9.13506 3.30644 9.70107 4.47967 9.8273C5.6529 9.95354 6.83039 9.63065 7.77511 8.92361L8.36845 9.51694C8.17851 9.89003 8.11044 10.3133 8.17383 10.7271C8.23722 11.141 8.42887 11.5245 8.72178 11.8236L10.1351 13.2369C10.5101 13.6115 11.0184 13.8218 11.5484 13.8218C12.0785 13.8218 12.5868 13.6115 12.9618 13.2369C13.1523 13.0507 13.3036 12.8282 13.407 12.5827C13.5103 12.3371 13.5635 12.0734 13.5635 11.8069C13.5635 11.5405 13.5103 11.2768 13.407 11.0312C13.3036 10.7857 13.1523 10.5632 12.9618 10.3769ZM7.30845 7.55028C6.84194 8.01561 6.24798 8.33224 5.60161 8.46018C4.95524 8.58811 4.28544 8.52161 3.67685 8.26907C3.06825 8.01653 2.54815 7.58928 2.18226 7.0413C1.81636 6.49332 1.62107 5.84919 1.62107 5.19028C1.62107 4.53136 1.81636 3.88723 2.18226 3.33925C2.54815 2.79127 3.06825 2.36402 3.67685 2.11149C4.28544 1.85895 4.95524 1.79244 5.60161 1.92038C6.24798 2.04831 6.84194 2.36494 7.30845 2.83028C7.61887 3.13991 7.86515 3.50775 8.0332 3.91272C8.20124 4.31769 8.28774 4.75183 8.28774 5.19028C8.28774 5.62873 8.20124 6.06287 8.0332 6.46783C7.86515 6.8728 7.61887 7.24064 7.30845 7.55028ZM12.0218 12.2636C11.9598 12.3261 11.8861 12.3757 11.8048 12.4095C11.7236 12.4434 11.6365 12.4608 11.5484 12.4608C11.4604 12.4608 11.3733 12.4434 11.2921 12.4095C11.2108 12.3757 11.1371 12.3261 11.0751 12.2636L9.66178 10.8503C9.5993 10.7883 9.5497 10.7146 9.51585 10.6333C9.48201 10.5521 9.46458 10.465 9.46458 10.3769C9.46458 10.2889 9.48201 10.2018 9.51585 10.1206C9.5497 10.0393 9.5993 9.96559 9.66178 9.90361C9.72376 9.84112 9.79749 9.79153 9.87873 9.75768C9.95997 9.72384 10.0471 9.70641 10.1351 9.70641C10.2231 9.70641 10.3103 9.72384 10.3915 9.75768C10.4727 9.79153 10.5465 9.84112 10.6084 9.90361L12.0218 11.3169C12.0843 11.3789 12.1339 11.4527 12.1677 11.5339C12.2016 11.6151 12.219 11.7023 12.219 11.7903C12.219 11.8783 12.2016 11.9654 12.1677 12.0467C12.1339 12.1279 12.0843 12.2016 12.0218 12.2636Z" fill="#777F88"/>
</svg>
